<svg enable-background="new 0 0 52 52" viewBox="0 0 52 52" xmlns="http://www.w3.org/2000/svg"><path d="m9.9986572 9.9996338v32h32v-32zm30 30h-28v-28h28z" fill="#0096e6"/><path d="m32.9986572 16.4996338h-14c-1.6499634 0-3 1.3500366-3 3v14c0 1.6500244 1.3500366 3 3 3h14c1.6600342 0 3-1.3499756 3-3v-14c0-1.6499634-1.3399658-3-3-3zm1 17c0 .5499878-.4500122 1-1 1h-14c-.5499878 0-1-.4500122-1-1v-14c0-.5499878.4500122-1 1-1h14c.5499878 0 1 .4500122 1 1z" fill="#0096e6"/><path d="m33.9986572 19.4996338v14c0 .5499878-.4500122 1-1 1h-14c-.5499878 0-1-.4500122-1-1v-14c0-.5499878.4500122-1 1-1h14c.5499878 0 1 .4500122 1 1z" fill="#d0e8f9"/><g fill="#0096e6"><path d="m42 12.5h7v2h-7z"/><path d="m42 17.5h7v2h-7z"/><path d="m42 22.5h7v2h-7z"/><path d="m42 27.5h7v2h-7z"/><path d="m42 32.5h7v2h-7z"/><path d="m42 37.5h7v2h-7z"/><path d="m3 12.5h7v2h-7z"/><path d="m3 17.5h7v2h-7z"/><path d="m3 22.5h7v2h-7z"/><path d="m3 27.5h7v2h-7z"/><path d="m3 32.5h7v2h-7z"/><path d="m3 37.5h7v2h-7z"/><path d="m37.5 3h2v7h-2z"/><path d="m32.5 3h2v7h-2z"/><path d="m27.5 3h2v7h-2z"/><path d="m22.5 3h2v7h-2z"/><path d="m17.5 3h2v7h-2z"/><path d="m12.5 3h2v7h-2z"/><path d="m37.5 42h2v7h-2z"/><path d="m32.5 42h2v7h-2z"/><path d="m27.5 42h2v7h-2z"/><path d="m22.5 42h2v7h-2z"/><path d="m17.5 42h2v7h-2z"/><path d="m12.5 42h2v7h-2z"/><path d="m13.715439 13.703629h1.999786v2.022919h-1.999786z" transform="matrix(.7069861 -.7072275 .7072275 .7069861 -6.095117 14.718812)"/><path d="m36.285263 36.274216h1.999786v2.021884h-1.999786z" transform="matrix(.7071068 -.7071068 .7071068 .7071068 -15.444017 37.285156)"/></g></svg>