<svg enable-background="new 0 0 512.001 512.001" viewBox="0 0 512.001 512.001" xmlns="http://www.w3.org/2000/svg"><path d="m123.949 146.034c-24.76 8.253-43.858-13.962-58.3-13.831-14.442.13-65.817 23.295-65.649 41.864.167 18.233 82.682 71.006 140.455 13.233z" fill="#464655"/><path d="m388.052 146.034c24.76 8.253 43.858-13.962 58.3-13.831s65.816 23.296 65.648 41.865c-.166 18.233-82.682 71.006-140.455 13.233z" fill="#464655"/><path d="m342.439 385.215c19.068-82.837 53.867-237.293 53.867-261.266 0-24.76 0-33.013-16.506-49.519-5.26-5.26-15.628-10.469-28.22-15.324-61.338-23.649-129.818-23.649-191.156 0-12.592 4.855-22.959 10.064-28.22 15.324-16.506 16.506-16.506 24.76-16.506 49.519 0 23.973 34.799 178.429 53.867 261.266l-14.078 49.274c-7.532 26.361 12.262 52.603 39.678 52.603h121.674c27.416 0 47.211-26.241 39.678-52.603z" fill="#ffebd2"/><path d="m298.998 406.514h-85.995c-12.718 0-23.029 10.31-23.029 23.029 0 10.654 2.896 21.108 8.377 30.243l9.17 15.284c4.474 7.458 12.534 12.021 21.231 12.021h54.494c8.698 0 16.757-4.563 21.231-12.021l9.17-15.284c5.481-9.135 8.377-19.589 8.377-30.243.002-12.719-10.308-23.029-23.026-23.029z" fill="#ebb4a0"/><path d="m222.987 454.078c-2.112 0-4.224-.806-5.835-2.418l-16.506-16.506c-3.224-3.224-3.224-8.447 0-11.671s8.447-3.224 11.671 0l16.506 16.506c3.224 3.224 3.224 8.446 0 11.67-1.612 1.613-3.724 2.419-5.836 2.419z" fill="#d7a091"/><path d="m289.013 454.078c-2.112 0-4.224-.806-5.835-2.418-3.224-3.224-3.224-8.446 0-11.67l16.507-16.506c3.224-3.224 8.447-3.224 11.671 0s3.224 8.447 0 11.671l-16.506 16.506c-1.613 1.611-3.725 2.417-5.837 2.417z" fill="#d7a091"/><path d="m379.799 74.429c-5.187-5.187-15.345-10.324-27.701-15.121-7.631-9.224-18.432-20.325-30.072-26.145-16.506-8.254-66.026-8.254-66.026-8.254s-49.519 0-66.026 8.253c-11.641 5.821-22.441 16.921-30.072 26.145-12.355 4.797-22.513 9.934-27.701 15.121-14.713 14.713-16.304 22.947-16.479 42.08 11.315.526 25.431 1.112 32.154 1.112 50.35 0 92.638-23.539 106.987-33.987l-7.952 33.086c26.134-.237 72.695-23.358 82.229-33.762l8.553 32.937c25.598-16.708 25.598-24.961 25.598-24.961s16.683.02 31.792 9.152c-1.646-9.035-5.574-15.946-15.284-25.656z" fill="#ffdeb7"/><path d="m116.008 107.526c-.294 4.655-.313 9.959-.313 16.422 0 23.973 34.799 178.429 53.867 261.266 0 0 45.172-87.948 45.172-104.454 0-16.49 8.228-148.284-98.726-173.234z" fill="#6b676e"/><ellipse cx="161.093" cy="202.359" fill="#464655" rx="12.38" ry="20.633"/><path d="m395.993 107.526c.294 4.655.313 9.959.313 16.422 0 23.973-34.799 178.429-53.867 261.266 0 0-45.172-87.948-45.172-104.454 0-16.49-8.227-148.284 98.726-173.234z" fill="#6b676e"/><ellipse cx="350.908" cy="202.359" fill="#464655" rx="12.38" ry="20.633"/></svg>