<svg height="43.029221" width="42.749992" xmlns="http://www.w3.org/2000/svg" xmlns:xlink="http://www.w3.org/1999/xlink"><radialGradient id="a" cx="13.832776" cy="17.903767" gradientTransform="matrix(1 0 0 2.02439 0 -18.34044)" gradientUnits="userSpaceOnUse" r="1.811961" xlink:href="#h"/><radialGradient id="b" cx="12.993087" cy="18.399908" gradientTransform="matrix(1.1813 0 0 1.182048 -7.437867 -8.732645)" gradientUnits="userSpaceOnUse" r="2.161727" xlink:href="#k"/><radialGradient id="c" cx="12.285971" cy="15.826629" gradientTransform="matrix(.875764 0 0 .876359 -3.490113 -3.624426)" gradientUnits="userSpaceOnUse" r="3.093591" xlink:href="#h"/><radialGradient id="d" cx="12.285971" cy="15.826629" gradientTransform="matrix(.875764 0 0 .876359 20.518186 -3.624426)" gradientUnits="userSpaceOnUse" r="3.093591" xlink:href="#h"/><linearGradient id="e" gradientTransform="matrix(-.783152 0 0 1.126747 43.259686 -7.50977)" gradientUnits="userSpaceOnUse" x1="10.998293" x2="14.539844" xlink:href="#n" y1="11.928971" y2="13.486036"/><radialGradient id="f" cx="12.993087" cy="18.399908" gradientTransform="matrix(1.1813 0 0 1.182048 5.091181 -8.732645)" gradientUnits="userSpaceOnUse" r="2.161727" xlink:href="#k"/><radialGradient id="g" cx="605.71429" cy="486.64789" gradientTransform="matrix(-2.774389 0 0 1.969706 112.7623 -872.8854)" gradientUnits="userSpaceOnUse" r="117.14286" xlink:href="#h"/><linearGradient id="h"><stop offset="0"/><stop offset="1" stop-opacity="0"/></linearGradient><radialGradient id="i" cx="605.71429" cy="486.64789" gradientTransform="matrix(2.774389 0 0 1.969706 -1891.633 -872.8854)" gradientUnits="userSpaceOnUse" r="117.14286" xlink:href="#h"/><linearGradient id="j" gradientTransform="matrix(2.774389 0 0 1.969706 -1892.179 -872.8854)" gradientUnits="userSpaceOnUse" x1="302.85715" x2="302.85715" y1="366.64789" y2="609.50507"><stop offset="0" stop-opacity="0"/><stop offset=".5"/><stop offset="1" stop-opacity="0"/></linearGradient><linearGradient id="k"><stop offset="0" stop-color="#fff"/><stop offset="1" stop-color="#fff" stop-opacity="0"/></linearGradient><linearGradient id="l" gradientTransform="matrix(.734574 0 0 .73094 10.573346 1.667994)" gradientUnits="userSpaceOnUse" x1="35.996582" x2="33.664921" y1="40.458221" y2="37.770721"><stop offset="0" stop-color="#7c7c7c"/><stop offset="1" stop-color="#b8b8b8"/></linearGradient><linearGradient id="m" gradientTransform="matrix(.734574 0 0 .73094 10.780716 1.450054)" gradientUnits="userSpaceOnUse" x1="33.396004" x2="34.170048" xlink:href="#k" y1="36.921333" y2="38.070381"/><linearGradient id="n"><stop offset="0" stop-color="#999a98"/><stop offset=".5" stop-color="#caccc8"/><stop offset="1" stop-color="#616161"/></linearGradient><linearGradient id="o" gradientTransform="matrix(1.125982 0 0 1.272791 -4.167995 -7.706526)" gradientUnits="userSpaceOnUse" x1="37.270947" x2="35.871902" y1="27.272932" y2="22.67392"><stop offset="0" stop-color="#fff"/><stop offset="1" stop-color="#e6e6e6"/></linearGradient><radialGradient id="p" cx="12.285971" cy="15.826629" gradientTransform="matrix(.875764 0 0 .876359 9.044196 -3.676882)" gradientUnits="userSpaceOnUse" r="3.093591" xlink:href="#h"/><linearGradient id="q" gradientTransform="matrix(1.125982 0 0 1.126747 -8.457429 -7.50977)" gradientUnits="userSpaceOnUse" x1="10.998293" x2="14.539844" xlink:href="#n" y1="11.928971" y2="13.486036"/><linearGradient id="r" gradientTransform="matrix(1.125982 0 0 1.126747 -6.652831 -7.675961)" gradientUnits="userSpaceOnUse" x1="24.03125" x2="24.03125" xlink:href="#n" y1="7.53125" y2="15.53125"/><linearGradient id="s" gradientUnits="userSpaceOnUse" x1="20.630336" x2="28.168422" y1="21.767597" y2="33.744219"><stop offset="0" stop-color="#2e3436"/><stop offset="1" stop-color="#2e3436" stop-opacity="0"/></linearGradient><radialGradient id="t" cx="12.993087" cy="18.399908" gradientTransform="matrix(1.1813 0 0 1.182048 16.603766 -8.732645)" gradientUnits="userSpaceOnUse" r="2.161727" xlink:href="#k"/><linearGradient id="u" gradientTransform="matrix(.951156 0 0 1 1.172114 0)" gradientUnits="userSpaceOnUse" x1="25.348972" x2="25.348972" y1="37.548233" y2="39.750675"><stop offset="0" stop-color="#383936"/><stop offset="1" stop-color="#555753"/></linearGradient><g transform="matrix(.02105461 0 0 .02086758 40.101716 36.191744)"><path d="m-1559.2523-150.69685h1339.6335v478.35718h-1339.6335z" fill="url(#j)" opacity=".402062"/><path d="m-219.61876-150.68038v478.33079c142.874166.90045 345.40022-107.16966 345.40014-239.196175 0-132.026537-159.436816-239.134595-345.40014-239.134615z" fill="url(#i)" opacity=".402062"/><path d="m-1559.2523-150.68038v478.33079c-142.8742.90045-345.4002-107.16966-345.4002-239.196175 0-132.026537 159.4368-239.134595 345.4002-239.134615z" fill="url(#g)" opacity=".402062"/></g><g fill-rule="evenodd" transform="translate(-2.573224 -2.310156)"><path d="m7.1903818 30.619256-.2324383 10.880736h34.0785195l-.532851-12.672188z" display="block" fill="url(#u)" stroke="#2e3436" stroke-linejoin="round"/><path d="m7.5296067 37.613897-.1990474 3.386103h33.9837547l-33.4861364-.497957z" display="block" fill="#fff" opacity=".230769"/><g stroke-width="1.000001"><path d="m6.8123473 11.277009h32.8731757l3.333144 25.687105h-37.9879278z" display="block" fill="#cacaca" stroke="#686868"/><path d="m6.1824687 8.5000038h33.7385303l3.420886 27.0000082h-38.9879236z" display="block" fill="url(#o)" stroke="#868a84"/></g></g><path d="m4.5552456 7.189847h31.9000404l3.045037 24.999998h-36.6503024z" display="block" fill="none" stroke="#fff"/><g fill-rule="evenodd" transform="translate(-2.573224 -2.310156)"><path d="m42.811018 35.038881-.721394-5.887241-6.262972 5.910083z" display="block" opacity=".208791"/><g fill="url(#a)"><path d="m15.644737 17.903767a1.8119612 3.6681163 0 1 1 -3.623922 0 1.8119612 3.6681163 0 1 1 3.623922 0z" display="block" opacity=".335165" transform="matrix(1.620316 0 0 1.126747 .837299 -7.689396)"/><path d="m15.644737 17.903767a1.8119612 3.6681163 0 1 1 -3.623922 0 1.8119612 3.6681163 0 1 1 3.623922 0z" display="block" opacity=".335165" transform="matrix(1.125982 0 0 .958072 19.31959 -5.288202)"/><path d="m15.644737 17.903767a1.8119612 3.6681163 0 1 1 -3.623922 0 1.8119612 3.6681163 0 1 1 3.623922 0z" display="block" opacity=".335165" transform="matrix(1.125982 0 0 1.054458 -4.566089 -6.660313)"/></g></g><path d="m17.145732 27.013544h-2.349569v-10.589081l-2.985543.901573v-1.988767l5.335112-1.467268zm12.30432 0h-8.055664v-1.8827c2.632219-2.66347 4.124989-4.180826 4.478314-4.552069.3592-.37712.6448-.771927.856797-1.18442.217873-.41837.326813-.872103.32682-1.361201-.000007-.565684-.185499-1.019417-.556477-1.361201-.365102-.347655-.877414-.521488-1.536937-.521498-.429874.00001-.90391.114916-1.422107.344718-.518203.223931-.986348.539188-1.404441.94577v-2.377682c1.16006-.671748 2.258291-1.007629 3.294696-1.007643 1.23072.000014 2.193513.330002 2.88838.989965.70074.654096 1.051113 1.558615 1.051122 2.713563-.000009.713018-.200222 1.434867-.600642 2.165547-.394546.730694-.992243 1.467273-1.793092 2.209741l-3.118037 2.90802h5.591268z" fill="url(#s)"/><path d="m9.7903027 11.019999a1.8794368 1.8806269 0 1 1 -3.7588729 0 1.8794368 1.8806269 0 1 1 3.7588729 0z" display="block" fill="none" stroke="url(#b)"/><path d="m9.2820962 11.019994a1.393332 1.3942787 0 1 1 -2.7866635 0 1.393332 1.3942787 0 1 1 2.7866635 0z" display="block" fill="url(#c)" fill-rule="evenodd" stroke-width=".876061"/><path d="m33.290395 11.019994a1.393332 1.3942787 0 1 1 -2.786663 0 1.393332 1.3942787 0 1 1 2.786663 0z" display="block" fill="url(#d)" fill-rule="evenodd" stroke-width=".876061"/><path d="m31.973623 10.801737a1.1421551 4.8799738 0 1 0 -1.243005-4.8277089" display="block" fill="none" stroke="url(#e)" stroke-linecap="round" stroke-width="1.5"/><path d="m7.7691827 10.801737a1.642141 4.8799738 0 1 1 1.7871384-4.8277089" display="block" fill="none" stroke="url(#q)" stroke-linecap="round" stroke-width="1.500001"/><g fill-rule="evenodd"><path d="m7.8444336 5.6898439h24.5823424v1h-24.5823424z" display="block" fill="#868a84"/><path d="m21.816405 10.967538a1.393332 1.3942787 0 1 1 -2.786663 0 1.393332 1.3942787 0 1 1 2.786663 0z" display="block" fill="url(#p)" stroke-width=".876061"/><rect display="block" fill="url(#r)" height="11.47873" rx="1.03125" width="2.322337" x="19.244743"/><path d="m32.344598 32.868121c2.33118.152747 7.618199-2.824971 7.129444-6.609161-1.148332 1.771138-3.495486.85214-6.513672.968367 0 0 .378815 5.098548-.615772 5.640794z" fill="url(#l)" stroke="#868a84"/></g><path d="m33.926776 31.189844c1.006203-.499838 3.252875-1.568937 4.207366-2.943838-1.216643.276108-2.12119.06474-4.144591.05079 0 0 .07504 2.326596-.06278 2.893052z" fill="none" opacity=".369318" stroke="url(#m)"/><path d="m20.614272 2.1898424a.4999995.4999995 0 1 1 -.999999 0 .4999995.4999995 0 1 1 .999999 0z" display="block" fill="#fff" fill-rule="evenodd" opacity=".554945" stroke-width=".592592"/><path d="m7.4267759 2.2210938a.53125031.53125031 0 1 1 -1.0625006 0 .53125031.53125031 0 1 1 1.0625006 0z" display="block" fill="#fff" fill-rule="evenodd" opacity=".554945" stroke-width=".62963"/><path d="m33.30178 2.2210938a.5312505.5312505 0 1 1 -1.062501 0 .5312505.5312505 0 1 1 1.062501 0z" display="block" fill="#fff" fill-rule="evenodd" opacity=".554945" stroke-width=".62963"/><path d="m22.319351 11.019999a1.8794368 1.8806269 0 1 1 -3.758873 0 1.8794368 1.8806269 0 1 1 3.758873 0z" display="block" fill="none" stroke="url(#f)"/><path d="m33.831936 11.019999a1.8794368 1.8806269 0 1 1 -3.758873 0 1.8794368 1.8806269 0 1 1 3.758873 0z" display="block" fill="none" stroke="url(#t)"/></svg>