<svg height="48" width="48" xmlns="http://www.w3.org/2000/svg" xmlns:xlink="http://www.w3.org/1999/xlink"><radialGradient id="a" cx="605.71429" cy="486.64789" gradientTransform="matrix(-2.774389 0 0 1.969706 112.7623 -872.8854)" gradientUnits="userSpaceOnUse" r="117.14286" xlink:href="#b"/><linearGradient id="b"><stop offset="0"/><stop offset="1" stop-opacity="0"/></linearGradient><radialGradient id="c" cx="605.71429" cy="486.64789" gradientTransform="matrix(2.774389 0 0 1.969706 -1891.633 -872.8854)" gradientUnits="userSpaceOnUse" r="117.14286" xlink:href="#b"/><linearGradient id="d" gradientTransform="matrix(2.774389 0 0 1.969706 -1892.179 -872.8854)" gradientUnits="userSpaceOnUse" x1="302.85715" x2="302.85715" y1="366.64789" y2="609.50507"><stop offset="0" stop-opacity="0"/><stop offset=".5"/><stop offset="1" stop-opacity="0"/></linearGradient><linearGradient id="e"><stop offset="0" stop-color="#fff"/><stop offset="1" stop-color="#fff" stop-opacity="0"/></linearGradient><linearGradient id="f" gradientTransform="matrix(.734574 0 0 .73094 13.14657 3.97815)" gradientUnits="userSpaceOnUse" x1="35.996582" x2="33.664921" y1="40.458221" y2="37.770721"><stop offset="0" stop-color="#7c7c7c"/><stop offset="1" stop-color="#b8b8b8"/></linearGradient><linearGradient id="g" gradientTransform="matrix(.734574 0 0 .73094 13.35394 3.76021)" gradientUnits="userSpaceOnUse" x1="33.396004" x2="34.170048" xlink:href="#e" y1="36.921333" y2="38.070381"/><linearGradient id="h"><stop offset="0" stop-color="#999a98"/><stop offset=".5" stop-color="#caccc8"/><stop offset="1" stop-color="#616161"/></linearGradient><linearGradient id="i" gradientTransform="matrix(1.125982 0 0 1.272791 -4.167995 -7.706526)" gradientUnits="userSpaceOnUse" x1="37.270947" x2="35.871902" y1="27.272932" y2="22.67392"><stop offset="0" stop-color="#fff"/><stop offset="1" stop-color="#e6e6e6"/></linearGradient><radialGradient id="j" cx="12.28597066132" cy="15.82662893505" gradientUnits="userSpaceOnUse" r="3.09359095956" xlink:href="#b"/><linearGradient id="k" gradientUnits="userSpaceOnUse" x1="10.998293" x2="14.539844" xlink:href="#h" y1="11.928971" y2="13.486036"/><linearGradient id="l" gradientTransform="matrix(1.125982 0 0 1.126747 -4.079607 -5.365805)" gradientUnits="userSpaceOnUse" x1="24.03125" x2="24.03125" xlink:href="#h" y1="7.53125" y2="15.53125"/><radialGradient id="m" cx="13.832776" cy="17.903767" gradientTransform="matrix(1 0 0 2.02439 0 -18.34044)" gradientUnits="userSpaceOnUse" r="1.811961" xlink:href="#b"/><linearGradient id="n" gradientUnits="userSpaceOnUse" x1="23.20356" x2="30.741646" y1="24.077753" y2="36.054375"><stop offset="0" stop-color="#2e3436"/><stop offset="1" stop-color="#2e3436" stop-opacity="0"/></linearGradient><radialGradient id="o" cx="12.993087" cy="18.399908" gradientUnits="userSpaceOnUse" r="2.161727" xlink:href="#e"/><linearGradient id="p" gradientTransform="matrix(.951156 0 0 1 1.172114 0)" gradientUnits="userSpaceOnUse" x1="25.348972" x2="25.348972" y1="37.548233" y2="39.750675"><stop offset="0" stop-color="#383936"/><stop offset="1" stop-color="#555753"/></linearGradient><g transform="matrix(.02105461 0 0 .02086758 42.67494 38.5019)"><path d="m-1559.2523-150.69685h1339.6335v478.35718h-1339.6335z" fill="url(#d)" opacity=".402062"/><path d="m-219.61876-150.68038v478.33079c142.874166.90045 345.40022-107.16966 345.40014-239.196175 0-132.026537-159.436816-239.134595-345.40014-239.134615z" fill="url(#c)" opacity=".402062"/><path d="m-1559.2523-150.68038v478.33079c-142.8742.90045-345.4002-107.16966-345.4002-239.196175 0-132.026537 159.4368-239.134595 345.4002-239.134615z" fill="url(#a)" opacity=".402062"/></g><g fill-rule="evenodd"><path d="m7.1903818 30.619256-.2324383 10.880736h34.0785195l-.532851-12.672188-33.3132302 1.791452z" display="block" fill="url(#p)" stroke="#2e3436" stroke-linejoin="round"/><path d="m7.5296067 37.613897-.1990474 3.386103h33.9837547l-33.4861364-.497957-.2985709-2.888146z" display="block" fill="#fff" opacity=".230769"/><path d="m6.8123473 11.277009h32.8731757l3.333144 25.687105h-37.9879278l1.7816081-25.687105z" display="block" fill="#cacaca" stroke="#686868" stroke-width="1.000001"/><path d="m6.1824687 8.5000038h33.7385303l3.420886 27.0000082h-38.9879236l1.8285073-27.0000082z" display="block" fill="url(#i)" stroke="#868a84" stroke-width="1.000001"/></g><path d="m7.12847 9.5000031h31.90004l3.045037 24.9999979h-36.650302l1.705225-24.9999979z" display="block" fill="none" stroke="#fff"/><path d="m42.811018 35.038881-.721394-5.887241-6.262972 5.910083 6.984366-.022842z" display="block" fill-rule="evenodd" opacity=".208791"/><path d="m15.644737 17.903767a1.8119612 3.6681163 0 1 1 -3.623922 0 1.8119612 3.6681163 0 1 1 3.623922 0z" display="block" fill="url(#m)" fill-rule="evenodd" opacity=".335165" transform="matrix(1.620316 0 0 1.126747 .837299 -7.689396)"/><path d="m15.644737 17.903767a1.8119612 3.6681163 0 1 1 -3.623922 0 1.8119612 3.6681163 0 1 1 3.623922 0z" display="block" fill="url(#m)" fill-rule="evenodd" opacity=".335165" transform="matrix(1.125982 0 0 .958072 19.31959 -5.288202)"/><path d="m15.644737 17.903767a1.8119612 3.6681163 0 1 1 -3.623922 0 1.8119612 3.6681163 0 1 1 3.623922 0z" display="block" fill="url(#m)" fill-rule="evenodd" opacity=".335165" transform="matrix(1.125982 0 0 1.054458 -4.566089 -6.660313)"/><path d="m19.718956 29.3237h-2.349569v-10.589081l-2.985543.901573v-1.988767l5.335112-1.467268zm12.30432 0h-8.055664v-1.8827c2.632219-2.66347 4.124989-4.180826 4.478314-4.552069.3592-.37712.6448-.771927.856797-1.18442.217873-.41837.326813-.872103.32682-1.361201-.000007-.565684-.185499-1.019417-.556477-1.361201-.365102-.347655-.877414-.521488-1.536937-.521498-.429874.00001-.90391.114916-1.422107.344718-.518203.223931-.986348.539188-1.404441.94577v-2.377682c1.16006-.671748 2.258291-1.007629 3.294696-1.007643 1.23072.000014 2.193513.330002 2.88838.989965.70074.654096 1.051113 1.558615 1.051122 2.713563-.000009.713018-.200222 1.434867-.600642 2.165547-.394546.730694-.992243 1.467273-1.793092 2.209741l-3.118037 2.90802h5.591268z" fill="url(#n)"/><path d="m14.584077 16.710526a1.5909903 1.5909903 0 1 1 -3.18198 0 1.5909903 1.5909903 0 1 1 3.18198 0z" display="block" fill="none" stroke="url(#o)" stroke-width=".846257" transform="matrix(1.1813 0 0 1.182048 -4.864643 -6.422489)"/><path d="m14.584077 16.710526a1.5909903 1.5909903 0 1 1 -3.18198 0 1.5909903 1.5909903 0 1 1 3.18198 0z" display="block" fill="url(#j)" fill-rule="evenodd" transform="matrix(.875764 0 0 .876359 -.916889 -1.31427)"/><path d="m14.584077 16.710526a1.5909903 1.5909903 0 1 1 -3.18198 0 1.5909903 1.5909903 0 1 1 3.18198 0z" display="block" fill="url(#j)" fill-rule="evenodd" transform="matrix(.875764 0 0 .876359 23.09141 -1.31427)"/><path d="m14.411076 16.251658a1.4584079 4.3310289 0 1 1 1.587182-4.284643" display="block" fill="none" stroke="url(#k)" stroke-linecap="round" stroke-width="1.596817" transform="matrix(-.783152 0 0 1.126747 45.83291 -5.199614)"/><path d="m14.411076 16.251658a1.4584079 4.3310289 0 1 1 1.587182-4.284643" display="block" fill="none" stroke="url(#k)" stroke-linecap="round" stroke-width="1.331719" transform="matrix(1.125982 0 0 1.126747 -5.884205 -5.199614)"/><path d="m10.417658 8h24.582342v1h-24.582342z" display="block" fill="#868a84" fill-rule="evenodd"/><path d="m14.584077 16.710526a1.5909903 1.5909903 0 1 1 -3.18198 0 1.5909903 1.5909903 0 1 1 3.18198 0z" display="block" fill="url(#j)" fill-rule="evenodd" transform="matrix(.875764 0 0 .876359 11.61742 -1.366726)"/><rect display="block" fill="url(#l)" fill-rule="evenodd" height="11.47873" rx="1.03125" width="2.322337" x="21.817968" y="2.310156"/><path d="m34.917822 35.178277c2.33118.152747 7.618199-2.824971 7.129444-6.609161-1.148332 1.771138-3.495486.85214-6.513672.968367 0 0 .378815 5.098548-.615772 5.640794z" fill="url(#f)" fill-rule="evenodd" stroke="#868a84"/><path d="m36.5 33.5c1.006203-.499838 3.252875-1.568937 4.207366-2.943838-1.216643.276108-2.12119.064741-4.144591.050786 0 0 .075043 2.326596-.062775 2.893052z" fill="none" opacity=".369318" stroke="url(#g)"/><path d="m23.8125 5.03125a.84375.84375 0 1 1 -1.6875 0 .84375.84375 0 1 1 1.6875 0z" display="block" fill="#fff" fill-rule="evenodd" opacity=".554945" transform="matrix(.592592 0 0 .592592 9.076399 1.51852)"/><path d="m23.8125 5.03125a.84375.84375 0 1 1 -1.6875 0 .84375.84375 0 1 1 1.6875 0z" display="block" fill="#fff" fill-rule="evenodd" opacity=".554945" transform="matrix(.62963 0 0 .62963 -4.993064 1.363424)"/><path d="m23.8125 5.03125a.84375.84375 0 1 1 -1.6875 0 .84375.84375 0 1 1 1.6875 0z" display="block" fill="#fff" fill-rule="evenodd" opacity=".554945" transform="matrix(.62963 0 0 .62963 20.88194 1.363424)"/><path d="m14.584077 16.710526a1.5909903 1.5909903 0 1 1 -3.18198 0 1.5909903 1.5909903 0 1 1 3.18198 0z" display="block" fill="none" stroke="url(#o)" stroke-width=".846257" transform="matrix(1.1813 0 0 1.182048 7.664405 -6.422489)"/><path d="m14.584077 16.710526a1.5909903 1.5909903 0 1 1 -3.18198 0 1.5909903 1.5909903 0 1 1 3.18198 0z" display="block" fill="none" stroke="url(#o)" stroke-width=".846257" transform="matrix(1.1813 0 0 1.182048 19.17699 -6.422489)"/></svg>