<svg height="32.880508" width="35.999573" xmlns="http://www.w3.org/2000/svg" xmlns:xlink="http://www.w3.org/1999/xlink"><radialGradient id="a" cx="22.5" cy="28.115999" gradientTransform="matrix(2.365562 0 0 2.202845 -30.72517 -34.23996)" gradientUnits="userSpaceOnUse" r="14.538"><stop offset="0" stop-color="#ef2929"/><stop offset="1" stop-color="#c00"/></radialGradient><radialGradient id="b" cx="24.837" cy="36.421001" gradientTransform="matrix(1 0 0 .536723 0 16.87306)" gradientUnits="userSpaceOnUse" r="15.645"><stop offset="0"/><stop offset="1" stop-opacity="0"/></radialGradient><radialGradient id="c" cx="21.929001" cy="-3.218" gradientTransform="matrix(3.658819 0 0 2.080782 -68.416046 3.736818)" gradientUnits="userSpaceOnUse" r="13"><stop offset="0" stop-color="#fff"/><stop offset="1" stop-color="#fff" stop-opacity="0"/></radialGradient><linearGradient id="d" gradientUnits="userSpaceOnUse" x1="21.702" x2="21.816" y1="8.912" y2="35.546001"><stop offset="0"/><stop offset="1" stop-color="#fff" stop-opacity=".784"/></linearGradient><g fill-rule="evenodd" transform="translate(-5.999646 -9.025222)"><path d="m36.5 22a14 13 0 1 1 -28 0 14 13 0 1 1 28 0z" style="opacity:.15;stroke-width:3.136616;stroke-linecap:square;stroke-linejoin:round;fill:url(#a);stroke:url(#d)" transform="matrix(.920697 0 0 .99358 3.679484 1.641236)"/><path d="m40.481863 36.421127a15.644737 8.3968937 0 1 1 -31.2894745 0 15.644737 8.3968937 0 1 1 31.2894745 0z" fill="url(#b)" opacity=".04" transform="matrix(1.150533 0 0 .565685 -4.5765 16.55285)"/><path d="m36.5 22a14 13 0 1 1 -28 0 14 13 0 1 1 28 0z" fill="url(#a)" stroke="#c00" stroke-linecap="square" stroke-linejoin="round" stroke-width="1.076" transform="matrix(.894862 0 0 .9657 3.855776 2.660348)"/></g><path d="m29.499773 14.880529a11.500006 11.500006 0 1 1 -23.0000123 0 11.500006 11.500006 0 1 1 23.0000123 0z" fill="none" stroke="#f77d7d" stroke-linecap="square" stroke-linejoin="round" stroke-width=".999679"/><path d="m17.843504 2.8805179c-6.279532.07959-11.4044233 4.992059-11.8125003 11.1875001 6.1178233 2.51678 13.8704203-1.451223 23.1420053-3.381886-.68841-2.7485691-4.55472-7.8056141-11.173255-7.8056141-.05171 0-.104697-.000653-.15625 0z" fill="url(#c)" fill-rule="evenodd" opacity=".6"/></svg>