<svg height="48" width="48" xmlns="http://www.w3.org/2000/svg" xmlns:xlink="http://www.w3.org/1999/xlink"><radialGradient id="a" cx="24.837126" cy="36.421127" gradientTransform="matrix(1 0 0 .536723 0 16.87306)" gradientUnits="userSpaceOnUse" r="15.644737"><stop offset="0"/><stop offset="1" stop-opacity="0"/></radialGradient><radialGradient id="b" cx="21.929186" cy="-3.218293" gradientTransform="matrix(3.658819 0 0 2.080782 -62.4164 12.76204)" gradientUnits="userSpaceOnUse" r="13"><stop offset="0" stop-color="#fff"/><stop offset="1" stop-color="#fff" stop-opacity="0"/></radialGradient><radialGradient id="c" cx="22.5" cy="28.116049" gradientTransform="matrix(2.365562 0 0 2.202845 -30.72517 -34.23996)" gradientUnits="userSpaceOnUse" r="14.537862"><stop offset="0" stop-color="#ef2929"/><stop offset="1" stop-color="#c00"/></radialGradient><linearGradient id="d" gradientUnits="userSpaceOnUse" x1="21.702389" x2="21.816015" y1="8.911531" y2="35.546108"><stop offset="0"/><stop offset="1" stop-color="#fff" stop-opacity=".783505"/></linearGradient><g><g fill-rule="evenodd"><path d="m36.5 22a14 13 0 1 1 -28 0 14 13 0 1 1 28 0z" style="opacity:.15;stroke-width:3.136616;stroke-linecap:square;stroke-linejoin:round;stroke:url(#d);fill:url(#c)" transform="matrix(.920697 0 0 .99358 3.679484 1.641236)"/><path d="m40.481863 36.421127a15.644737 8.3968935 0 1 1 -31.2894745 0 15.644737 8.3968935 0 1 1 31.2894745 0z" fill="url(#a)" opacity=".04" transform="matrix(1.150533 0 0 .565685 -4.5765 16.55285)"/><path d="m36.5 22a14 13 0 1 1 -28 0 14 13 0 1 1 28 0z" fill="url(#c)" stroke="#c00" stroke-linecap="square" stroke-linejoin="round" stroke-width="1.075725" transform="matrix(.894862 0 0 .9657 3.855776 2.660348)"/></g><path d="m38 24a14 14 0 1 1 -28 0 14 14 0 1 1 28 0z" fill="none" stroke="#f77d7d" stroke-linecap="square" stroke-linejoin="round" stroke-width="1.217392" transform="matrix(.821429 0 0 .821429 4.285117 4.191455)"/><path d="m23.84315 11.90574c-6.279532.079595-11.404423 4.992059-11.8125 11.1875 6.117823 2.51678 13.87042-1.451223 23.142005-3.381886-.68841-2.748569-4.55472-7.805614-11.173255-7.805614-.051707 0-.104697-.000653-.15625 0z" fill="url(#b)" fill-rule="evenodd" opacity=".6"/></g></svg>