<svg height="45.329018" width="46.04604" xmlns="http://www.w3.org/2000/svg" xmlns:xlink="http://www.w3.org/1999/xlink"><radialGradient id="a" cx="605.71399" cy="486.64801" gradientTransform="matrix(-.06006974 0 0 .02926477 43.680097 26.570556)" gradientUnits="userSpaceOnUse" r="117.143" xlink:href="#b"/><linearGradient id="b"><stop offset="0"/><stop offset="1" stop-opacity="0"/></linearGradient><radialGradient id="c" cx="605.71399" cy="486.64801" gradientTransform="matrix(.06006974 0 0 .02926477 .281892 26.570556)" gradientUnits="userSpaceOnUse" r="117.143" xlink:href="#b"/><linearGradient id="d" gradientTransform="matrix(.06006974 0 0 .02926477 .270071 26.570556)" gradientUnits="userSpaceOnUse" x1="302.85699" x2="302.85699" y1="366.64801" y2="609.505"><stop offset="0" stop-opacity="0"/><stop offset=".5"/><stop offset="1" stop-opacity="0"/></linearGradient><radialGradient id="e" cx="8.824" cy="3.756" gradientTransform="matrix(.968273 0 0 1.032767 1.584575 -2.499553)" gradientUnits="userSpaceOnUse" r="37.751999"><stop offset="0" stop-color="#a3a3a3"/><stop offset="1" stop-color="#4c4c4c"/></radialGradient><radialGradient id="f" cx="33.966999" cy="35.737" gradientTransform="matrix(.960493 0 0 1.041132 -1.768978 -3.146)" gradientUnits="userSpaceOnUse" r="86.708"><stop offset="0" stop-color="#fafafa"/><stop offset="1" stop-color="#bbb"/></radialGradient><radialGradient id="g" cx="8.144" cy="7.268" gradientTransform="matrix(.968273 0 0 1.032767 1.584575 -2.499553)" gradientUnits="userSpaceOnUse" r="38.159"><stop offset="0" stop-color="#fff"/><stop offset="1" stop-color="#f8f8f8"/></radialGradient><linearGradient id="h"><stop offset="0" stop-color="#f0f0f0"/><stop offset="1" stop-color="#9a9a9a"/></linearGradient><radialGradient id="i" cx="8.290469" cy="27.113012" gradientUnits="userSpaceOnUse" r="1.207" xlink:href="#h"/><radialGradient id="j" cx="8.290469" cy="15.627012" gradientUnits="userSpaceOnUse" r="1.208" xlink:href="#h"/><radialGradient id="k" cx="24.129999" cy="37.967999" gradientTransform="matrix(1 0 0 .237968 0 28.93278)" gradientUnits="userSpaceOnUse" r="16.528999" xlink:href="#b"/><linearGradient id="l" gradientUnits="userSpaceOnUse" x1="27.365999" x2="31.336" y1="26.58" y2="30.558001"><stop offset="0" stop-color="#8a8a8a"/><stop offset="1" stop-color="#484848"/></linearGradient><linearGradient id="m" gradientTransform="matrix(1.334593 0 0 1.291292 -6.973842 -7.460658)" gradientUnits="userSpaceOnUse" x1="30.656" x2="33.219002" y1="34" y2="31.063"><stop offset="0" stop-color="#7d7d7d"/><stop offset=".5" stop-color="#b1b1b1"/><stop offset="1" stop-color="#686868"/></linearGradient><linearGradient id="n" gradientUnits="userSpaceOnUse" x1="18.292999" x2="17.500999" y1="13.602" y2="25.743"><stop offset="0" stop-color="#fff"/><stop offset=".5" stop-color="#fff" stop-opacity=".219"/><stop offset="1" stop-color="#fff"/></linearGradient><radialGradient id="o" cx="18.240999" cy="21.818001" gradientUnits="userSpaceOnUse" r="8.309"><stop offset="0" stop-color="#729fcf" stop-opacity=".208"/><stop offset="1" stop-color="#729fcf" stop-opacity=".676"/></radialGradient><radialGradient id="p" cx="15.414" cy="13.078" gradientTransform="matrix(2.592963 0 0 2.252104 -25.05975 -18.941)" gradientUnits="userSpaceOnUse" r="6.656"><stop offset="0" stop-color="#fff"/><stop offset="1" stop-color="#fff" stop-opacity=".248"/></radialGradient><g stroke-width=".017936"><path d="m7.4784393 37.300422h29.0051017v7.107159h-29.0051017z" fill="url(#d)" opacity=".402"/><path d="m36.483542 37.300667v7.106766c3.093443.01338 7.478439-1.592266 7.478438-3.55384 0-1.961575-3.45205-3.552926-7.478438-3.552926z" fill="url(#c)" opacity=".402"/><path d="m7.4784393 37.300667v7.106766c-3.0934436.013378-7.4784393-1.592266-7.4784393-3.55384 0-1.961575 3.4520491-3.552926 7.4784393-3.552926z" fill="url(#a)" opacity=".402"/></g><rect display="block" fill="url(#f)" height="40.919998" ry="1.149" stroke="url(#e)" stroke-linecap="round" stroke-linejoin="round" width="34.875" x="4.835022" y=".5"/><rect display="block" fill="none" height="38.945999" rx=".149" stroke="url(#g)" stroke-linecap="round" stroke-linejoin="round" width="32.776001" x="5.897022" y="1.438"/><g fill="#fff" transform="matrix(.229703 0 0 .229703 3.84455 1.060983)"><path d="m23.428 113.07c0 1.973-1.6 3.572-3.573 3.572-1.974 0-3.573-1.6-3.573-3.572 0-1.974 1.6-3.573 3.573-3.573s3.573 1.6 3.573 3.573z"/><path d="m23.428 63.07c0 1.973-1.6 3.573-3.573 3.573-1.974 0-3.573-1.6-3.573-3.573 0-1.974 1.6-3.573 3.573-3.573s3.573 1.6 3.573 3.573z"/></g><path d="m8.8724796 26.768337c0 .453204-.3675248.820499-.8207288.820499-.4534338 0-.8207289-.367524-.8207289-.820499 0-.453434.3675248-.820729.8207289-.820729.453204 0 .8207288.367525.8207288.820729z" fill="url(#i)"/><path d="m8.8724796 15.283187c0 .453204-.3675248.820729-.8207288.820729-.4534338 0-.8207289-.367525-.8207289-.820729 0-.453434.3675248-.820729.8207289-.820729.453204 0 .8207288.367525.8207288.820729z" fill="url(#j)"/><g fill="none" transform="translate(-1.768978 -3.146)"><path d="m11.505723 5.4942766v37.9065924" stroke="#000" stroke-opacity=".018" stroke-width=".989"/><path d="m12.5 5.0205154v38.0177126" stroke="#fff" stroke-opacity=".205"/></g><g fill="#9b9b9b" fill-opacity=".55" transform="matrix(.909091 0 0 1 .59465 -3.146)"><rect display="block" height="1" rx=".152" ry=".065" width="22" x="15" y="9"/><rect display="block" height="1" rx=".152" ry=".065" width="22" x="15" y="11"/><rect display="block" height="1" rx=".152" ry=".065" width="22" x="15" y="13"/><rect display="block" height="1" rx=".152" ry=".065" width="22" x="15" y="15"/><rect display="block" height="1" rx=".152" ry=".065" width="22" x="15" y="17"/><rect display="block" height="1" rx=".152" ry=".065" width="22" x="15" y="19"/><rect display="block" height="1" rx=".152" ry=".065" width="22" x="15" y="21"/><rect display="block" height="1" rx=".152" ry=".065" width="22" x="15" y="23"/><rect display="block" height="1" rx=".068" ry=".065" width="9.9" x="15" y="25"/><rect display="block" height="1" rx=".152" ry=".065" width="22" x="15" y="29"/><rect display="block" height="1" rx=".152" ry=".065" width="22" x="15" y="31"/><rect display="block" height="1" rx=".152" ry=".065" width="22" x="15" y="33"/><rect display="block" height="1" rx=".152" ry=".065" width="22" x="15" y="35"/><rect display="block" height="1" rx=".106" ry=".065" width="15.4" x="15" y="37"/></g><g transform="matrix(.665377 0 0 .665377 14.217472 14.76235)"><g fill-rule="evenodd"><path d="m40.65864 37.967922a16.528622 3.9332814 0 1 1 -33.0572434 0 16.528622 3.9332814 0 1 1 33.0572434 0z" fill="url(#k)" opacity=".171" transform="matrix(1.446431 0 0 1.51999 -10.97453 -17.75168)"/><path d="m18.627569 3.1435548c-8.13913 0-14.7448008 6.6056711-14.7448008 14.7448012 0 8.13913 6.6056708 14.744802 14.7448008 14.744802 3.479555 0 6.551001-1.384393 9.073723-3.402647-.205377 1.006881-.07803 2.035368.756144 2.759925l10.964084 9.52741c1.233416 1.071329 3.087462.93096 4.15879-.302457 1.071328-1.233418.930959-3.087462-.302457-4.15879l-10.964084-9.527411c-.671527-.583279-1.492878-.755969-2.306238-.642722 1.9867-2.512422 3.364839-5.548803 3.364839-8.99811 0-8.1391301-6.605671-14.7448012-14.744801-14.7448012zm-.07562 1.2261833c7.639459 0 13.291775 4.7889505 13.291775 13.2917749 0 8.675113-5.81669 13.291775-13.291775 13.291775-7.302949 0-13.2917734-5.478092-13.2917734-13.291775 0-7.9841069 5.8246384-13.291775 13.2917734-13.2917749z" fill="#dcdcdc" stroke="url(#l)" stroke-linecap="round" stroke-miterlimit="10" stroke-width="3.006"/><path d="m18.602905 3.0803551c-8.16544 0-14.7924642 6.627024-14.7924642 14.7924639 0 8.16544 6.6270242 14.792464 14.7924642 14.792464 3.490803 0 6.572177-1.388867 9.103055-3.413645-.206041 1.010136-.07829 2.041947.758587 2.768846l10.999526 9.558207c1.237403 1.074792 3.097442.93397 4.172233-.303435 1.074791-1.237404.933968-3.097442-.303435-4.172233l-10.999525-9.558208c-.673698-.585164-1.497704-.758413-2.313693-.644799 1.993122-2.520544 3.375716-5.56674 3.375716-9.027197 0-8.1654399-6.627024-14.7924639-14.792464-14.7924639zm-.07586 3.1860692c6.281108.0000002 11.378818 5.0977107 11.378818 11.3788187s-5.09771 11.378818-11.378818 11.378818-11.3788184-5.09771-11.3788184-11.378818c.0000002-6.281108 5.0977104-11.3788187 11.3788184-11.3788187z" fill="#dcdcdc"/><path d="m39.507004 41.57769c-.478672-2.273187 1.39733-4.811422 3.584053-4.788375 0 0-10.760367-9.258111-10.760367-9.258111-2.944791-.05671-4.269502 2.272616-3.776814 4.599922z" fill="url(#m)"/></g><g stroke-linecap="round" stroke-miterlimit="10"><path d="m28.549437 18.920233a11.048544 11.048544 0 1 1 -22.0970883 0 11.048544 11.048544 0 1 1 22.0970883 0z" fill="none" stroke="url(#n)" stroke-width="1.206" transform="matrix(1.245743 0 0 1.245743 -3.425346 -6.177033)"/><rect fill="none" height="4.44" opacity=".433155" rx="3.211" ry="2.837" stroke="#fff" stroke-width="1.502954" transform="matrix(.752986 .658037 -.648902 .760872 0 0)" width="19.048" x="40.373001" y=".141"/><path d="m25.897786 18.478292a8.3085051 8.3085051 0 1 1 -16.61701 0 8.3085051 8.3085051 0 1 1 16.61701 0z" fill="url(#o)" fill-rule="evenodd" stroke="#3063a3" stroke-width="1.07457" transform="matrix(1.398614 0 0 1.398614 -6.224338 -8.298958)"/></g><path d="m18.156915 7.3966938c-5.20759 0-9.4245469 4.2169572-9.4245469 9.4245472 0 1.503975.4203072 2.887773 1.0471719 4.149903 1.25238.461613 2.582757.775683 3.994767.775683 6.170955 0 11.099282-4.861637 11.480106-10.937129-1.730964-2.0455312-4.210039-3.4130042-7.097498-3.4130042z" fill="url(#p)" fill-rule="evenodd" opacity=".834"/></g></svg>