<svg height="38.00079" width="38.000004" xmlns="http://www.w3.org/2000/svg" xmlns:xlink="http://www.w3.org/1999/xlink"><radialGradient id="a" cx="24.837126" cy="36.421127" gradientTransform="matrix(1.214466 0 0 .319596 -11.163843 21.360739)" gradientUnits="userSpaceOnUse" r="15.644737"><stop offset="0"/><stop offset="1" stop-opacity="0"/></radialGradient><radialGradient id="b" cx="35.292667" cy="20.494493" gradientTransform="matrix(0 -.843022 1.020168 0 .606436 42.58614)" gradientUnits="userSpaceOnUse" r="16.9562"><stop offset="0" stop-color="#73d216"/><stop offset="1" stop-color="#4e9a06"/></radialGradient><radialGradient id="c" cx="15.987216" cy="1.535031" gradientTransform="matrix(0 -2.046729 -1.55761 0 44.11559 66.93275)" gradientUnits="userSpaceOnUse" r="17.171415"><stop offset="0" stop-color="#fff"/><stop offset="1" stop-color="#fff" stop-opacity="0"/></radialGradient><path d="m38.000003 33.000791a19.000001 4.9999976 0 1 1 -38.000003 0 19.000001 4.9999976 0 1 1 38.000003 0z" fill="url(#a)" fill-rule="evenodd" opacity=".204545" stroke-width=".85039"/><g transform="matrix(-1 0 0 -1 42.028562 39)"><path d="m14.519136 38.5 18.005029-.0039v-12.991632l7.995366-.0078-17.144722-19.9974545-16.8462505 19.9980705 7.9958815.0038z" style="fill-rule:evenodd;stroke:#3a7304;stroke-linecap:round;stroke-linejoin:round;stroke-miterlimit:10;fill:url(#b)"/><path d="m39.429889 24.993467-7.406391.01172.0027 12.992837-15.378556-.0092c.769903-18.340944 10.72263-10.993027 15.38164-21.646833z" fill="url(#c)" fill-rule="evenodd" opacity=".508021"/><path d="m15.520704 37.496094 16.001405.003906v-12.99295l6.816811-.015625-14.954276-17.4525854-14.7065267 17.4569424 6.8399007.0052z" fill="none" opacity=".481283" stroke="#fff" stroke-miterlimit="10"/></g></svg>