<svg height="48" width="48" xmlns="http://www.w3.org/2000/svg" xmlns:xlink="http://www.w3.org/1999/xlink"><radialGradient id="a" cx="24.837126" cy="36.421127" gradientTransform="matrix(1 0 0 .536723 0 16.87306)" gradientUnits="userSpaceOnUse" r="15.644737"><stop offset="0"/><stop offset="1" stop-opacity="0"/></radialGradient><radialGradient id="b" cx="35.292667" cy="20.494493" gradientTransform="matrix(0 -.843022 1.020168 0 .606436 42.58614)" gradientUnits="userSpaceOnUse" r="16.956199"><stop offset="0" stop-color="#73d216"/><stop offset="1" stop-color="#4e9a06"/></radialGradient><radialGradient id="c" cx="15.987216" cy="1.535031" gradientTransform="matrix(0 -2.046729 -1.55761 0 44.11559 66.93275)" gradientUnits="userSpaceOnUse" r="17.171415"><stop offset="0" stop-color="#fff"/><stop offset="1" stop-color="#fff" stop-opacity="0"/></radialGradient><path d="m40.481863 36.421127a15.644737 8.3968935 0 1 1 -31.2894745 0 15.644737 8.3968935 0 1 1 31.2894745 0z" fill="url(#a)" fill-rule="evenodd" opacity=".204545" transform="matrix(1.214466 0 0 .595458 -6.163846 16.31275)"/><g transform="matrix(-1 0 0 -1 47.02856 43.99921)"><path d="m14.519136 38.5 18.005029-.003906v-12.991626l7.995366-.007812-17.144722-19.9974425-16.8462505 19.9980705 7.9958815.00379-.005304 12.998926z" style="fill-rule:evenodd;stroke:#3a7304;stroke-linecap:round;stroke-linejoin:round;stroke-miterlimit:10;fill:url(#b)"/><path d="m39.429889 24.993467-7.406391.011719.002681 12.992837-15.378556-.009153c.769922-18.34099 10.722649-10.993073 15.381659-21.646879l7.400607 8.651476z" fill="url(#c)" fill-rule="evenodd" opacity=".508021"/><path d="m15.520704 37.496094 16.001405.003906v-12.99295l6.816811-.015625-14.954276-17.4525854-14.7065267 17.4569424 6.8399007.005247.002686 12.995065z" fill="none" opacity=".481283" stroke="#fff" stroke-miterlimit="10"/></g></svg>