<svg height="30.219618" width="32.000008" xmlns="http://www.w3.org/2000/svg" xmlns:xlink="http://www.w3.org/1999/xlink"><linearGradient id="a" gradientUnits="userSpaceOnUse" x1="9.758869" x2="20.784717" y1="11.832546" y2="23.957546"><stop offset="0" stop-color="#729fcf"/><stop offset="1" stop-color="#5187d6"/></linearGradient><linearGradient id="b" gradientUnits="userSpaceOnUse" x1="9.758869" x2="20.784717" y1="11.832546" y2="23.957546"><stop offset="0" stop-color="#fff"/><stop offset="1" stop-color="#fff" stop-opacity=".340206"/></linearGradient><radialGradient id="c" cx="23.070683" cy="35.127438" gradientTransform="matrix(1.4184041 .02503119 -.01273728 .42257812 -16.102765 10.288754)" gradientUnits="userSpaceOnUse" r="10.31934"><stop offset="0"/><stop offset="1" stop-opacity="0"/></radialGradient><path d="m32.000005 25.627211a16.000003 4.5910004 0 1 1 -32.00000425 0 16.000003 4.5910004 0 1 1 32.00000425 0z" fill="url(#c)" opacity=".108247" stroke-width="1.751562"/><path d="m20.398226 26.523429v-9.02696l9.978465-.04018v-6.995324h-9.969535l-.0089-9.96016978-7.016273.01116.0045 9.93115178-9.9896263.07366-.03571 6.968539 10.0342693-.02902.0067 9.040353z" fill="#75a1d0" stroke="#3465a4"/><path d="m19.382572 25.514667v-9.034182h10.002602l-.0067-5.024429h-9.986974v-9.9949738l-4.994834.01786.0089 9.9771158-10.0261883.01786-.02679 4.97309 10.0643924.0089-.01339 9.027485z" fill="url(#a)" opacity=".408602" stroke="url(#b)" stroke-width="1.000001"/><path d="m3.8838706 13.980747c0 1.9375 25.9843744-.96875 25.9843744-.03125v-3l-9.984375.03125v-9.9652278h-5.999999v9.9652278h-10.0000004z" fill="#fff" fill-rule="evenodd" opacity=".311828"/></svg>