<svg height="48" width="48" xmlns="http://www.w3.org/2000/svg" xmlns:xlink="http://www.w3.org/1999/xlink"><radialGradient id="a" cx="605.71429" cy="486.64789" gradientTransform="matrix(-2.774389 0 0 1.969706 112.7623 -872.8854)" gradientUnits="userSpaceOnUse" r="117.14286" xlink:href="#b"/><linearGradient id="b"><stop offset="0"/><stop offset="1" stop-opacity="0"/></linearGradient><radialGradient id="c" cx="605.71429" cy="486.64789" gradientTransform="matrix(2.774389 0 0 1.969706 -1891.633 -872.8854)" gradientUnits="userSpaceOnUse" r="117.14286" xlink:href="#b"/><linearGradient id="d" gradientTransform="matrix(2.774389 0 0 1.969706 -1892.179 -872.8854)" gradientUnits="userSpaceOnUse" x1="302.85715" x2="302.85715" y1="366.64789" y2="609.50507"><stop offset="0" stop-opacity="0"/><stop offset=".5"/><stop offset="1" stop-opacity="0"/></linearGradient><linearGradient id="e"><stop offset="0" stop-color="#fff"/><stop offset="1" stop-color="#fff" stop-opacity="0"/></linearGradient><linearGradient id="f" gradientTransform="matrix(1.008511 0 0 1 -47.59576 -.285714)" gradientUnits="userSpaceOnUse" x1="64.571426" x2="72.85714" y1="9.714286" y2="40.857143"><stop offset="0" stop-color="#dfdfdf"/><stop offset="1" stop-color="#c0c0c0"/></linearGradient><linearGradient id="g" gradientUnits="userSpaceOnUse" x1="17.362535" x2="17.323767" xlink:href="#e" y1="11.312428" y2=".503795"/><radialGradient id="h" cx="24.546707" cy="37.595428" gradientTransform="matrix(1 0 0 .333333 0 25.06362)" gradientUnits="userSpaceOnUse" r="22.728432" xlink:href="#b"/><linearGradient id="i" gradientUnits="userSpaceOnUse" x1="28.800662" x2="40.765537" y1="25.772228" y2="41.565857"><stop offset="0" stop-color="#ebebeb"/><stop offset=".5" stop-color="#fff"/><stop offset="1" stop-color="#ebebeb"/></linearGradient><linearGradient id="j" gradientUnits="userSpaceOnUse" x1="26.681153" x2="42.985616" y1="40.480537" y2="27.634621"><stop offset="0" stop-color="#fbfbfb"/><stop offset=".5" stop-color="#b6b6b6"/><stop offset="1" stop-color="#e4e4e4"/></linearGradient><linearGradient id="k" gradientUnits="userSpaceOnUse" x1="32.889035" x2="38.537788" y1="28.559632" y2="38.153546"><stop offset="0" stop-color="#fff" stop-opacity=".326733"/><stop offset="1" stop-color="#fff" stop-opacity=".60396"/></linearGradient><linearGradient id="l" gradientUnits="userSpaceOnUse" x1="27.006278" x2="48.9828" xlink:href="#e" y1="21.635049" y2="50.951757"/><linearGradient id="m" gradientUnits="userSpaceOnUse" x1="28.702885" x2="17.742729" xlink:href="#e" y1="31.494707" y2="18.366575"/><radialGradient id="n" cx="37.751469" cy="27.569166" gradientTransform="matrix(.441746 .498655 -.407098 .360624 32.00755 10.21308)" gradientUnits="userSpaceOnUse" r="21.333334"><stop offset="0" stop-color="#fff307"/><stop offset=".5" stop-color="#166eff"/><stop offset="1" stop-color="#fff" stop-opacity="0"/></radialGradient><path d="m7.0663522 9.8326324 4.0765048-4.2612038h23.571429l4.320377 4.3622191z" fill="#6b6c69" fill-rule="evenodd" stroke="#606060" stroke-linecap="round" stroke-linejoin="round"/><g transform="matrix(.0201828 0 0 .02086758 41.09416 37.29644)"><path d="m-1559.2523-150.69685h1339.6335v478.35718h-1339.6335z" fill="url(#d)" opacity=".402062"/><path d="m-219.61876-150.68038v478.33079c142.874166.90045 345.40022-107.16966 345.40014-239.196175 0-132.026537-159.436816-239.134595-345.40014-239.134615z" fill="url(#c)" opacity=".402062"/><path d="m-1559.2523-150.68038v478.33079c-142.8742.90045-345.4002-107.16966-345.4002-239.196175 0-132.026537 159.4368-239.134595 345.4002-239.134615z" fill="url(#a)" opacity=".402062"/></g><rect fill="url(#f)" fill-rule="evenodd" height="31.142857" rx="1.428572" stroke="#606060" width="32.848644" x="6.575687" y="9.428572"/><path d="m38.857143 22.756128v16.428573c0 .474857-.363132.857143-.814198.857143h-22.168471l.049389-17.285716z" fill="#a40000" fill-rule="evenodd"/><path d="m15.379549 11.285714v28" fill="none" stroke="#606060" stroke-dasharray="1 1"/><path d="m38.857143 22.613273v-11.142859c0-.474857-.363132-.857143-.814198-.857143h-22.168471l.049389 12.000002z" fill="#f0f0f0" fill-rule="evenodd"/><path d="m11.512932 6.5274685h22.772115s4.256999 4.2569985 4.256999 4.2569985v28.431057c0 .287766-.231668.519434-.519434.519434h-30.0452141c-.2877664 0-.519434-.231668-.519434-.519434v-28.431057s4.0549681-4.2569985 4.0549681-4.2569985z" fill="none" opacity=".625668" stroke="url(#g)"/><path d="m47.275139 37.595428a22.728432 7.5761442 0 1 1 -45.4568635 0 22.728432 7.5761442 0 1 1 45.4568635 0z" fill="url(#h)" fill-rule="evenodd" opacity=".625668" transform="matrix(.55024 0 0 .55024 18.897263 20.337496)"/><g transform="translate(-2.642854 -2.928571)"><path d="m34.951289 21.954475c-6.626509 0-11.955042 5.328533-11.955042 11.955042s5.328533 11.955042 11.955042 11.955042c6.62651 0 11.955043-5.328533 11.955043-11.955042s-5.328533-11.955042-11.955043-11.955042zm0 14.824252c-1.571234 0-2.86921-1.297976-2.86921-2.86921s1.297976-2.86921 2.86921-2.86921 2.86921 1.297976 2.86921 2.86921-1.297976 2.86921-2.86921 2.86921z" fill="url(#i)"/><path d="m34.951305 21.566644c-6.841486 0-12.342888 5.501401-12.342888 12.342888 0 6.841486 5.501402 12.342887 12.342888 12.342887 6.841487 0 12.342888-5.501401 12.342888-12.342887 0-6.841487-5.501401-12.342888-12.342888-12.342888zm0 15.30518c-1.622208 0-2.962293-1.340084-2.962293-2.962292s1.340085-2.962293 2.962293-2.962293 2.962293 1.340085 2.962293 2.962293-1.340085 2.962292-2.962293 2.962292z" fill="url(#j)" stroke="#808080"/><path d="m34.951289 28.111323c-3.237952 0-5.798194 2.635543-5.798194 5.798194 0 3.237954 2.635543 5.798195 5.798194 5.798195 3.237953 0 5.798195-2.635543 5.798195-5.798195 0-3.237953-2.635544-5.798194-5.798195-5.798194zm0 8.960846c-1.731928 0-3.162651-1.430723-3.162651-3.162652 0-1.731928 1.430723-3.162651 3.162651-3.162651s3.162651 1.430723 3.162651 3.162651c0 1.731929-1.430723 3.162652-3.162651 3.162652z" opacity=".11"/><path d="m38.150519 22.816711-2.063876 8.030725c.645402.171876 1.161538.571243 1.512147 1.123894l7.111176-4.332097c-1.454832-2.369804-3.789773-4.113338-6.559447-4.822522z" fill="url(#k)"/><path d="m30.911911 44.678269 2.717288-7.833804c-.629082-.224368-1.110628-.664826-1.414602-1.244438l-7.44334 3.73264c1.255025 2.481415 3.438679 4.411057 6.140654 5.345602z" fill="url(#k)"/><path d="m34.951287 22.548803c-6.29708 0-11.360712 5.063632-11.360712 11.360712 0 6.297081 5.063632 11.360712 11.360712 11.360712 6.297081 0 11.360712-5.063631 11.360712-11.360712 0-6.29708-5.063631-11.360712-11.360712-11.360712z" fill="none" opacity=".546448" stroke="url(#l)"/><path d="m30.405591 24.930641a6.0987959 6.0987959 0 1 1 -12.197592 0 6.0987959 6.0987959 0 1 1 12.197592 0z" fill="none" opacity=".672131" stroke="url(#m)" stroke-width="1.621594" transform="matrix(.573842 0 0 .573842 21.03068 19.61419)"/><path d="m34.951289 23.065643c-6.010605 0-10.843874 4.833269-10.843874 10.843874s4.833269 10.843874 10.843874 10.843874c6.010606 0 10.843875-4.833269 10.843875-10.843874s-4.833269-10.843874-10.843875-10.843874zm0 13.446404c-1.425195 0-2.60253-1.177335-2.60253-2.60253s1.177335-2.60253 2.60253-2.60253 2.60253 1.177335 2.60253 2.60253-1.177335 2.60253-2.60253 2.60253z" fill="url(#n)" opacity=".114286"/></g></svg>