<svg height="48" width="48" xmlns="http://www.w3.org/2000/svg" xmlns:xlink="http://www.w3.org/1999/xlink"><radialGradient id="a" cx="25.075571" cy="5.78598" gradientTransform="matrix(-2.046729 0 0 1.55761 67.59375 3.275309)" gradientUnits="userSpaceOnUse" r="17.171415"><stop offset="0" stop-color="#fff"/><stop offset="1" stop-color="#fff" stop-opacity="0"/></radialGradient><radialGradient id="b" cx="24.837126" cy="36.421127" gradientTransform="matrix(1 0 0 .536723 0 16.87306)" gradientUnits="userSpaceOnUse" r="15.644737"><stop offset="0"/><stop offset="1" stop-opacity="0"/></radialGradient><radialGradient id="c" cx="22.291636" cy="32.797512" gradientTransform="matrix(-.843022 0 0 1.020168 43.57646 1.205215)" gradientUnits="userSpaceOnUse" r="16.956199"><stop offset="0" stop-color="#73d216"/><stop offset="1" stop-color="#4e9a06"/></radialGradient><g fill-rule="evenodd"><path d="m40.481863 36.421127a15.644737 8.3968935 0 1 1 -31.2894745 0 15.644737 8.3968935 0 1 1 31.2894745 0z" fill="url(#b)" opacity=".299465" transform="matrix(-1.271186 0 0 1.271186 56.19514 -15.27857)"/><path d="m39.490316 15.496821v16.99442h-12.952563v8.482538l-19.959836-17.000191 19.953646-17.2439979v8.7725349z" fill="url(#c)" stroke="#3a7304" stroke-linecap="round" stroke-linejoin="round" stroke-miterlimit="10"/><path d="m25.988368 7.9779766v8.0564744h12.94217v8.884463c-16.75-6.25-16.133537 5.294712-31.383538-.955288z" fill="url(#a)" opacity=".508021"/></g><path d="m38.475551 16.541365v14.92194h-12.985367v7.301416l-17.321765-14.795691 17.337726-14.9054001v7.4826321z" fill="none" opacity=".481283" stroke="#fff" stroke-miterlimit="10"/></svg>