<svg height="48" width="48" xmlns="http://www.w3.org/2000/svg" xmlns:xlink="http://www.w3.org/1999/xlink"><radialGradient id="a" cx="605.714" cy="486.648" gradientTransform="matrix(-2.774389 0 0 1.969706 112.7623 -872.8854)" gradientUnits="userSpaceOnUse" r="117.143" xlink:href="#b"/><linearGradient id="b"><stop offset="0"/><stop offset="1" stop-opacity="0"/></linearGradient><radialGradient id="c" cx="605.714" cy="486.648" gradientTransform="matrix(2.774389 0 0 1.969706 -1891.633 -872.8854)" gradientUnits="userSpaceOnUse" r="117.143" xlink:href="#b"/><linearGradient id="d" gradientTransform="matrix(2.774389 0 0 1.969706 -1892.179 -872.8854)" gradientUnits="userSpaceOnUse" x1="302.857" x2="302.857" y1="366.648" y2="609.505"><stop offset="0" stop-opacity="0"/><stop offset=".5"/><stop offset="1" stop-opacity="0"/></linearGradient><radialGradient id="e" cx="8.824" cy="3.756" gradientTransform="matrix(.968273 0 0 1.032767 3.353553 .646447)" gradientUnits="userSpaceOnUse" r="37.752"><stop offset="0" stop-color="#a3a3a3"/><stop offset="1" stop-color="#4c4c4c"/></radialGradient><radialGradient id="f" cx="33.967" cy="35.737" gradientTransform="scale(.960493 1.041132)" gradientUnits="userSpaceOnUse" r="86.708"><stop offset="0" stop-color="#fafafa"/><stop offset="1" stop-color="#bbb"/></radialGradient><radialGradient id="g" cx="8.144" cy="7.268" gradientTransform="matrix(.968273 0 0 1.032767 3.353553 .646447)" gradientUnits="userSpaceOnUse" r="38.159"><stop offset="0" stop-color="#fff"/><stop offset="1" stop-color="#f8f8f8"/></radialGradient><linearGradient id="h"><stop offset="0" stop-color="#f0f0f0"/><stop offset="1" stop-color="#9a9a9a"/></linearGradient><radialGradient id="i" cx="9.413" cy="30.297" gradientUnits="userSpaceOnUse" r="1.207" xlink:href="#h"/><radialGradient id="j" cx="9.413" cy="18.811" gradientUnits="userSpaceOnUse" r="1.208" xlink:href="#h"/><path d="m-1559.2523-150.69685h1339.6335v478.35718h-1339.6335z" fill="url(#d)" opacity=".402" transform="matrix(.02105461 0 0 .02086758 42.85172 41.1536)"/><path d="m-219.61876-150.68038v478.33079c142.874166.90045 345.40022-107.16966 345.40014-239.196175 0-132.026537-159.436816-239.134595-345.40014-239.134615z" fill="url(#c)" opacity=".402" transform="matrix(.02105461 0 0 .02086758 42.85172 41.1536)"/><path d="m-1559.2523-150.68038v478.33079c-142.8742.90045-345.4002-107.16966-345.4002-239.196175 0-132.026537 159.4368-239.134595 345.4002-239.134615z" fill="url(#a)" opacity=".402" transform="matrix(.02105461 0 0 .02086758 42.85172 41.1536)"/><rect display="block" fill="url(#f)" height="40.92" ry="1.149" stroke="url(#e)" stroke-linecap="round" stroke-linejoin="round" width="34.875" x="6.604" y="3.646"/><rect display="block" fill="none" height="38.946" rx=".149" stroke="url(#g)" stroke-linecap="round" stroke-linejoin="round" width="32.776" x="7.666" y="4.584"/><g fill="#fff" transform="matrix(.229703 0 0 .229703 5.613528 4.206983)"><path d="m23.428 113.07c0 1.973-1.6 3.572-3.573 3.572-1.974 0-3.573-1.6-3.573-3.572 0-1.974 1.6-3.573 3.573-3.573s3.573 1.6 3.573 3.573z"/><path d="m23.428 63.07c0 1.973-1.6 3.573-3.573 3.573-1.974 0-3.573-1.6-3.573-3.573 0-1.974 1.6-3.573 3.573-3.573s3.573 1.6 3.573 3.573z"/></g><path d="m9.9950109 29.952326c0 .453204-.3675248.820499-.8207288.820499-.4534338 0-.8207289-.367524-.8207289-.820499 0-.453434.3675248-.820729.8207289-.820729.453204 0 .8207288.367525.8207288.820729z" fill="url(#i)" transform="translate(.646447 -.037989)"/><path d="m9.9950109 18.467176c0 .453204-.3675248.820729-.8207288.820729-.4534338 0-.8207289-.367525-.8207289-.820729 0-.453434.3675248-.820729.8207289-.820729.453204 0 .8207288.367525.8207288.820729z" fill="url(#j)" transform="translate(.646447 -.037989)"/><g fill="none"><path d="m11.505723 5.4942766v37.9065924" stroke="#000" stroke-opacity=".018" stroke-width=".989"/><path d="m12.5 5.0205154v38.0177126" stroke="#fff" stroke-opacity=".205"/></g><g fill="#9b9b9b" fill-opacity=".55" transform="matrix(.909091 0 0 1 2.363628 0)"><rect display="block" height="1" rx=".152" ry=".065" width="22" x="15" y="9"/><rect display="block" height="1" rx=".152" ry=".065" width="22" x="15" y="11"/><rect display="block" height="1" rx=".152" ry=".065" width="22" x="15" y="13"/><rect display="block" height="1" rx=".152" ry=".065" width="22" x="15" y="15"/><rect display="block" height="1" rx=".152" ry=".065" width="22" x="15" y="17"/><rect display="block" height="1" rx=".152" ry=".065" width="22" x="15" y="19"/><rect display="block" height="1" rx=".152" ry=".065" width="22" x="15" y="21"/><rect display="block" height="1" rx=".152" ry=".065" width="22" x="15" y="23"/><rect display="block" height="1" rx=".068" ry=".065" width="9.9" x="15" y="25"/><rect display="block" height="1" rx=".152" ry=".065" width="22" x="15" y="29"/><rect display="block" height="1" rx=".152" ry=".065" width="22" x="15" y="31"/><rect display="block" height="1" rx=".152" ry=".065" width="22" x="15" y="33"/><rect display="block" height="1" rx=".152" ry=".065" width="22" x="15" y="35"/><rect display="block" height="1" rx=".106" ry=".065" width="15.4" x="15" y="37"/></g></svg>