<svg height="44.845078" width="42.749992" xmlns="http://www.w3.org/2000/svg" xmlns:xlink="http://www.w3.org/1999/xlink"><radialGradient id="a" cx="605.71399" cy="486.64801" gradientTransform="matrix(-.05841368 0 0 .041103 42.475882 19.792594)" gradientUnits="userSpaceOnUse" r="117.143" xlink:href="#b"/><linearGradient id="b"><stop offset="0"/><stop offset="1" stop-opacity="0"/></linearGradient><radialGradient id="c" cx="605.71399" cy="486.64801" gradientTransform="matrix(.05841368 0 0 .041103 .274121 19.792594)" gradientUnits="userSpaceOnUse" r="117.143" xlink:href="#b"/><linearGradient id="d" gradientTransform="matrix(.05841368 0 0 .041103 .262625 19.792594)" gradientUnits="userSpaceOnUse" x1="302.85699" x2="302.85699" y1="366.64801" y2="609.505"><stop offset="0" stop-opacity="0"/><stop offset=".5"/><stop offset="1" stop-opacity="0"/></linearGradient><radialGradient id="e" cx="8.824" cy="3.756" gradientTransform="matrix(.968273 0 0 1.032767 .603549 -2.499553)" gradientUnits="userSpaceOnUse" r="37.751999"><stop offset="0" stop-color="#a3a3a3"/><stop offset="1" stop-color="#4c4c4c"/></radialGradient><radialGradient id="f" cx="33.966999" cy="35.737" gradientTransform="matrix(.960493 0 0 1.041132 -2.750004 -3.146)" gradientUnits="userSpaceOnUse" r="86.708"><stop offset="0" stop-color="#fafafa"/><stop offset="1" stop-color="#bbb"/></radialGradient><radialGradient id="g" cx="8.144" cy="7.268" gradientTransform="matrix(.968273 0 0 1.032767 .603549 -2.499553)" gradientUnits="userSpaceOnUse" r="38.159"><stop offset="0" stop-color="#fff"/><stop offset="1" stop-color="#f8f8f8"/></radialGradient><linearGradient id="h"><stop offset="0" stop-color="#f0f0f0"/><stop offset="1" stop-color="#9a9a9a"/></linearGradient><radialGradient id="i" cx="7.309443" cy="27.113012" gradientUnits="userSpaceOnUse" r="1.207" xlink:href="#h"/><radialGradient id="j" cx="7.309443" cy="15.627012" gradientUnits="userSpaceOnUse" r="1.208" xlink:href="#h"/><g stroke-width=".020961"><path d="m7.2722665 34.862922h28.2054605v9.982156h-28.2054605z" fill="url(#d)" opacity=".402"/><path d="m35.477728 34.863265v9.981606c3.00816.01879 7.272267-2.236371 7.272265-4.991445 0-2.755074-3.35688-4.99016-7.272265-4.990161z" fill="url(#c)" opacity=".402"/><path d="m7.2722665 34.863265v9.981606c-3.0081606.01879-7.2722665-2.236371-7.2722665-4.991445s3.3568796-4.99016 7.2722665-4.990161z" fill="url(#a)" opacity=".402"/></g><rect display="block" fill="url(#f)" height="40.919998" ry="1.149" stroke="url(#e)" stroke-linecap="round" stroke-linejoin="round" width="34.875" x="3.853996" y=".5"/><rect display="block" fill="none" height="38.945999" rx=".149" stroke="url(#g)" stroke-linecap="round" stroke-linejoin="round" width="32.776001" x="4.915996" y="1.438"/><g fill="#fff" transform="matrix(.229703 0 0 .229703 2.863524 1.060983)"><path d="m23.428 113.07c0 1.973-1.6 3.572-3.573 3.572-1.974 0-3.573-1.6-3.573-3.572 0-1.974 1.6-3.573 3.573-3.573s3.573 1.6 3.573 3.573z"/><path d="m23.428 63.07c0 1.973-1.6 3.573-3.573 3.573-1.974 0-3.573-1.6-3.573-3.573 0-1.974 1.6-3.573 3.573-3.573s3.573 1.6 3.573 3.573z"/></g><path d="m7.8914535 26.768337c0 .453204-.3675248.820499-.8207288.820499-.4534338 0-.8207289-.367524-.8207289-.820499 0-.453434.3675248-.820729.8207289-.820729.453204 0 .8207288.367525.8207288.820729z" fill="url(#i)"/><path d="m7.8914535 15.283187c0 .453204-.3675248.820729-.8207288.820729-.4534338 0-.8207289-.367525-.8207289-.820729 0-.453434.3675248-.820729.8207289-.820729.453204 0 .8207288.367525.8207288.820729z" fill="url(#j)"/><g fill="none" transform="translate(-2.750004 -3.146)"><path d="m11.505723 5.4942766v37.9065924" stroke="#000" stroke-opacity=".018" stroke-width=".989"/><path d="m12.5 5.0205154v38.0177126" stroke="#fff" stroke-opacity=".205"/></g><g fill="#9b9b9b" fill-opacity=".55" transform="matrix(.909091 0 0 1 -.386376 -3.146)"><rect display="block" height="1" rx=".152" ry=".065" width="22" x="15" y="9"/><rect display="block" height="1" rx=".152" ry=".065" width="22" x="15" y="11"/><rect display="block" height="1" rx=".152" ry=".065" width="22" x="15" y="13"/><rect display="block" height="1" rx=".152" ry=".065" width="22" x="15" y="15"/><rect display="block" height="1" rx=".152" ry=".065" width="22" x="15" y="17"/><rect display="block" height="1" rx=".152" ry=".065" width="22" x="15" y="19"/><rect display="block" height="1" rx=".152" ry=".065" width="22" x="15" y="21"/><rect display="block" height="1" rx=".152" ry=".065" width="22" x="15" y="23"/><rect display="block" height="1" rx=".068" ry=".065" width="9.9" x="15" y="25"/><rect display="block" height="1" rx=".152" ry=".065" width="22" x="15" y="29"/><rect display="block" height="1" rx=".152" ry=".065" width="22" x="15" y="31"/><rect display="block" height="1" rx=".152" ry=".065" width="22" x="15" y="33"/><rect display="block" height="1" rx=".152" ry=".065" width="22" x="15" y="35"/><rect display="block" height="1" rx=".106" ry=".065" width="15.4" x="15" y="37"/></g></svg>