<svg height="48" width="48" xmlns="http://www.w3.org/2000/svg" xmlns:xlink="http://www.w3.org/1999/xlink"><linearGradient id="a" gradientUnits="userSpaceOnUse" x1="15.089121" x2="13.9996" y1="15.197734" y2="52.416314"><stop offset="0" stop-color="#fff"/><stop offset="1" stop-color="#fff" stop-opacity="0"/></linearGradient><linearGradient id="b" gradientTransform="matrix(1 0 0 1.004384 -145.0004 -71.4625)" gradientUnits="userSpaceOnUse" x1="169" x2="169" y1="110.33805" y2="93.204849"><stop offset="0" stop-color="#babdb6"/><stop offset="1" stop-color="#555753"/></linearGradient><radialGradient id="c" cx="169.77171" cy="100.20107" gradientTransform="matrix(.00000356 -1.07205 1.992104 -.00000125 -175.6121 212.6949)" gradientUnits="userSpaceOnUse" r="11"><stop offset="0" stop-color="#f7f7f7"/><stop offset="1" stop-color="#ccd0c7"/></radialGradient><linearGradient id="d" gradientTransform="matrix(1.103262 0 0 1.054917 -163.1228 -76.31138)" gradientUnits="userSpaceOnUse" x1="174.83363" x2="174.74524" y1="84.263489" y2="105.49083"><stop offset="0"/><stop offset="1" stop-color="#fff" stop-opacity=".484536"/></linearGradient><path d="m26.086565 12.829103v22.153256h8.826093v-22.153256z" style="opacity:.15;fill:none;stroke-width:2;stroke-linecap:square;stroke-linejoin:round;stroke:url(#d)"/><path d="m26.4996 13.40575v21h8v-21z" fill="url(#c)" fill-rule="evenodd"/><path d="m26.4996 13.407946v21.092064h8v-21.092064z" fill="none" stroke="url(#b)" stroke-linecap="square" stroke-linejoin="round"/><path d="m27.4996 14.40575v19h6v-19z" fill="none" stroke="url(#a)" stroke-linecap="square"/><path d="m28.019106 14.942758v8.385631l4.993942-.618719v-7.8553z" display="block" fill="#f7f7f7" opacity=".5"/><g transform="translate(-12.97229)"><path d="m26.086565 12.829103v22.153256h8.826093v-22.153256z" style="opacity:.15;fill:none;stroke-width:2;stroke-linecap:square;stroke-linejoin:round;stroke:url(#d)"/><path d="m26.4996 13.40575v21h8v-21z" fill="url(#c)" fill-rule="evenodd"/><path d="m26.4996 13.407946v21.092064h8v-21.092064z" fill="none" stroke="url(#b)" stroke-linecap="square" stroke-linejoin="round"/><path d="m27.4996 14.40575v19h6v-19z" fill="none" stroke="url(#a)" stroke-linecap="square"/><path d="m28.019106 14.942758v10.06501l4.993942-.618719v-9.534679z" display="block" fill="#f7f7f7" opacity=".5"/></g></svg>