<svg height="48" width="48" xmlns="http://www.w3.org/2000/svg" xmlns:xlink="http://www.w3.org/1999/xlink"><radialGradient id="a" cx="605.71429" cy="486.64789" gradientTransform="matrix(-2.774389 0 0 1.969706 112.7623 -872.8854)" gradientUnits="userSpaceOnUse" r="117.14286" xlink:href="#b"/><linearGradient id="b"><stop offset="0"/><stop offset="1" stop-opacity="0"/></linearGradient><radialGradient id="c" cx="605.71429" cy="486.64789" gradientTransform="matrix(2.774389 0 0 1.969706 -1891.633 -872.8854)" gradientUnits="userSpaceOnUse" r="117.14286" xlink:href="#b"/><linearGradient id="d" gradientTransform="matrix(2.774389 0 0 1.969706 -1892.179 -872.8854)" gradientUnits="userSpaceOnUse" x1="302.85715" x2="302.85715" y1="366.64789" y2="609.50507"><stop offset="0" stop-opacity="0"/><stop offset=".5"/><stop offset="1" stop-opacity="0"/></linearGradient><linearGradient id="e"><stop offset="0" stop-color="#fff"/><stop offset="1" stop-color="#d1d1d1"/></linearGradient><linearGradient id="f"><stop offset="0" stop-color="#fbfbfb"/><stop offset="1" stop-color="#dcdcdc"/></linearGradient><radialGradient id="g" cx="24.44569" cy="35.87817" gradientTransform="matrix(1.995058 0 0 1.855412 -24.37145 -30.2043)" gradientUnits="userSpaceOnUse" r="20.530962" xlink:href="#f"/><linearGradient id="h" gradientTransform="matrix(1.045319 0 0 .957884 -1.154429 1.415543)" gradientUnits="userSpaceOnUse" x1="20.092352" x2="31.799011" xlink:href="#e" y1="8.947163" y2="38.947163"/><linearGradient id="i" gradientTransform="matrix(.984324 0 0 .957884 .336637 1.415543)" gradientUnits="userSpaceOnUse" x1="24.445671" x2="24.445671" xlink:href="#f" y1=".498471" y2="39.447163"/><linearGradient id="j" gradientTransform="matrix(.476329 0 0 .627721 12.7549 9.156933)" gradientUnits="userSpaceOnUse" x1="31.597168" x2="24.44569" xlink:href="#e" y1="33.447811" y2="21.06741"/><radialGradient id="k" cx="24.39909" cy="29.099535" gradientTransform="matrix(2.407878 0 0 1.86105 -34.35094 -20.55775)" gradientUnits="userSpaceOnUse" r="6.027001"><stop offset="0" stop-color="#525252"/><stop offset="1"/></radialGradient><linearGradient id="l" gradientTransform="matrix(1.059222 0 0 .808101 -1.234132 4.001391)" gradientUnits="userSpaceOnUse" x1="22.585604" x2="22.585604" y1="34.149513" y2="11.042997"><stop offset="0" stop-color="#fff"/><stop offset=".46022728" stop-color="#e3e3e3"/><stop offset=".61970556" stop-color="#dadada" stop-opacity=".670588"/><stop offset="1" stop-color="#d1d1d1" stop-opacity=".342857"/></linearGradient><linearGradient id="m" gradientUnits="userSpaceOnUse" x1="25.279068" x2="28.284273" xlink:href="#b" y1="28.554562" y2="38.454056"/><radialGradient id="n" cx="24.483574" cy="29.60956" gradientTransform="matrix(2.777122 -.08126449 .06891211 2.223012 -45.28558 -33.24798)" gradientUnits="userSpaceOnUse" r="4.477476"><stop offset="0" stop-color="#fff"/><stop offset=".21590909" stop-color="#fff"/><stop offset=".5" stop-color="#838383"/><stop offset="1" stop-color="#838383" stop-opacity="0"/></radialGradient><g transform="matrix(.02312904 0 0 .01818338 45.14375 40.29231)"><path d="m-1559.2523-150.69685h1339.6335v478.35718h-1339.6335z" fill="url(#d)" opacity=".402062"/><path d="m-219.61876-150.68038v478.33079c142.874166.90045 345.40022-107.16966 345.40014-239.196175 0-132.026537-159.436816-239.134595-345.40014-239.134615z" fill="url(#c)" opacity=".402062"/><path d="m-1559.2523-150.68038v478.33079c-142.8742.90045-345.4002-107.16966-345.4002-239.196175 0-132.026537 159.4368-239.134595 345.4002-239.134615z" fill="url(#a)" opacity=".402062"/></g><rect fill="url(#g)" fill-rule="evenodd" height="39.914883" rx="5.454824" ry="5.454822" stroke="#9b9b9b" stroke-linejoin="bevel" stroke-miterlimit="10" width="40.061924" x="4.368156" y="3.617186"/><rect fill="none" height="37.781532" rx="4.242639" ry="4.242638" stroke="#fff" stroke-linejoin="bevel" stroke-miterlimit="10" width="37.696587" x="5.550816" y="4.650637"/><g fill-rule="evenodd"><rect fill="url(#i)" height="32.706299" rx="2.298096" ry="2.298095" stroke="url(#h)" stroke-linejoin="bevel" stroke-miterlimit="10" width="24.258368" x="12.269927" y="7.522073"/><rect fill="url(#k)" height="20.902771" rx="1.590987" stroke="url(#j)" stroke-linejoin="bevel" stroke-miterlimit="10" stroke-width=".999999" width="12.114655" x="18.518534" y="13.865772"/><path d="m19.975767 34.034641 2.65165 2.651651 11.136932-.176776s-2.828427-9.369166-2.828427-9.369166-.707107-9.369166-.707107-9.369166l-.707107 15.909904-9.545941.353553z" fill="url(#m)" opacity=".315508"/><rect fill="#8a8a8a" height="4.315497" rx="1.060655" stroke="#595959" stroke-linejoin="bevel" stroke-miterlimit="10" stroke-width=".999998" width="8.971419" x="20.019962" y="29.217876"/><rect fill="url(#l)" height="15.812397" rx=".88388" stroke="url(#n)" stroke-linejoin="bevel" stroke-miterlimit="10" stroke-width=".999999" width="8.912195" x="20.049574" y="15.230613"/></g></svg>