<svg height="43.133282" width="46.961987" xmlns="http://www.w3.org/2000/svg" xmlns:xlink="http://www.w3.org/1999/xlink"><radialGradient id="a" cx="605.71399" cy="486.64801" gradientTransform="matrix(-.06416895 0 0 .03581591 46.660868 21.303303)" gradientUnits="userSpaceOnUse" r="117.143" xlink:href="#b"/><linearGradient id="b"><stop offset="0"/><stop offset="1" stop-opacity="0"/></linearGradient><radialGradient id="c" cx="605.71399" cy="486.64801" gradientTransform="matrix(.06416895 0 0 .03581591 .301129 21.303303)" gradientUnits="userSpaceOnUse" r="117.143" xlink:href="#b"/><linearGradient id="d" gradientTransform="matrix(.06416895 0 0 .03581591 .2885 21.303303)" gradientUnits="userSpaceOnUse" x1="302.85699" x2="302.85699" y1="366.64801" y2="609.505"><stop offset="0" stop-opacity="0"/><stop offset=".5"/><stop offset="1" stop-opacity="0"/></linearGradient><linearGradient id="e"><stop offset="0" stop-color="#fff"/><stop offset="1" stop-color="#d1d1d1"/></linearGradient><linearGradient id="f"><stop offset="0" stop-color="#fbfbfb"/><stop offset="1" stop-color="#dcdcdc"/></linearGradient><radialGradient id="g" cx="24.445999" cy="35.877998" gradientTransform="matrix(1.995058 0 0 1.855412 -25.462416 -33.3213)" gradientUnits="userSpaceOnUse" r="20.531" xlink:href="#f"/><linearGradient id="h" gradientTransform="matrix(1.045319 0 0 .957884 -1.154429 1.415543)" gradientUnits="userSpaceOnUse" x1="20.091999" x2="31.799" xlink:href="#e" y1="8.947" y2="38.946999"/><linearGradient id="i" gradientTransform="matrix(.984324 0 0 .957884 .336637 1.415543)" gradientUnits="userSpaceOnUse" x1="24.445999" x2="24.445999" xlink:href="#f" y1=".498" y2="39.446999"/><linearGradient id="j" gradientTransform="matrix(.476329 0 0 .627721 12.7549 9.156933)" gradientUnits="userSpaceOnUse" x1="31.597" x2="24.445999" xlink:href="#e" y1="33.448002" y2="21.066999"/><radialGradient id="k" cx="24.399" cy="29.1" gradientTransform="matrix(2.407878 0 0 1.86105 -34.35094 -20.55775)" gradientUnits="userSpaceOnUse" r="6.027"><stop offset="0" stop-color="#525252"/><stop offset="1"/></radialGradient><linearGradient id="l" gradientTransform="matrix(1.059222 0 0 .808101 -1.234132 4.001391)" gradientUnits="userSpaceOnUse" x1="22.586" x2="22.586" y1="34.150002" y2="11.043"><stop offset="0" stop-color="#fff"/><stop offset=".46" stop-color="#e3e3e3"/><stop offset=".62" stop-color="#dadada" stop-opacity=".671"/><stop offset="1" stop-color="#d1d1d1" stop-opacity=".343"/></linearGradient><linearGradient id="m" gradientUnits="userSpaceOnUse" x1="25.278999" x2="28.284" xlink:href="#b" y1="28.555" y2="38.453999"/><radialGradient id="n" cx="24.483999" cy="29.610001" gradientTransform="matrix(2.777122 -.08126449 .06891211 2.223012 -45.28558 -33.24798)" gradientUnits="userSpaceOnUse" r="4.477"><stop offset="0" stop-color="#fff"/><stop offset=".216" stop-color="#fff"/><stop offset=".5" stop-color="#838383"/><stop offset="1" stop-color="#838383" stop-opacity="0"/></radialGradient><g stroke-width=".020508"><path d="m7.988775 34.435132h30.984437v8.69815h-30.984437z" fill="url(#d)" opacity=".402"/><path d="m38.973213 34.435431v8.697671c3.304542.01637 7.988775-1.948707 7.988773-4.349395 0-2.400689-3.68762-4.348275-7.988773-4.348276z" fill="url(#c)" opacity=".402"/><path d="m7.988775 34.435431v8.697671c-3.304543.016373-7.988775-1.948707-7.988775-4.349395 0-2.400689 3.6876201-4.348275 7.988775-4.348276z" fill="url(#a)" opacity=".402"/></g><rect fill="url(#g)" fill-rule="evenodd" height="39.915001" rx="5.455" stroke="#9b9b9b" stroke-linejoin="bevel" stroke-miterlimit="10" width="40.062" x="3.277034" y=".5"/><rect fill="none" height="37.782001" rx="4.243" stroke="#fff" stroke-linejoin="bevel" stroke-miterlimit="10" width="37.696999" x="4.460034" y="1.534"/><g fill-rule="evenodd" transform="translate(-1.090966 -3.117)"><rect fill="url(#i)" height="32.706001" rx="2.298" stroke="url(#h)" stroke-linejoin="bevel" stroke-miterlimit="10" width="24.257999" x="12.27" y="7.522"/><rect fill="url(#k)" height="20.903" rx="1.591" stroke="url(#j)" stroke-linejoin="bevel" stroke-miterlimit="10" width="12.115" x="18.518999" y="13.866"/><path d="m19.975767 34.034641 2.65165 2.651651 11.136932-.176776s-2.828427-9.369166-2.828427-9.369166-.707107-9.369166-.707107-9.369166l-.707107 15.909904z" fill="url(#m)" opacity=".316"/><g stroke-linejoin="bevel" stroke-miterlimit="10"><rect fill="#8a8a8a" height="4.315" rx="1.061" stroke="#595959" width="8.971" x="20.02" y="29.218"/><rect fill="url(#l)" height="15.812" rx=".884" stroke="url(#n)" width="8.912" x="20.049999" y="15.231"/></g></g></svg>