<svg height="48" width="48" xmlns="http://www.w3.org/2000/svg" xmlns:xlink="http://www.w3.org/1999/xlink"><radialGradient id="a" cx="605.714" cy="486.648" gradientTransform="matrix(-2.774389 0 0 1.969706 112.7623 -872.8854)" gradientUnits="userSpaceOnUse" r="117.143" xlink:href="#b"/><linearGradient id="b"><stop offset="0"/><stop offset="1" stop-opacity="0"/></linearGradient><radialGradient id="c" cx="605.714" cy="486.648" gradientTransform="matrix(2.774389 0 0 1.969706 -1891.633 -872.8854)" gradientUnits="userSpaceOnUse" r="117.143" xlink:href="#b"/><linearGradient id="d" gradientTransform="matrix(2.774389 0 0 1.969706 -1892.179 -872.8854)" gradientUnits="userSpaceOnUse" x1="302.857" x2="302.857" y1="366.648" y2="609.505"><stop offset="0" stop-opacity="0"/><stop offset=".5"/><stop offset="1" stop-opacity="0"/></linearGradient><linearGradient id="e"><stop offset="0" stop-color="#fff"/><stop offset="1" stop-color="#d1d1d1"/></linearGradient><linearGradient id="f"><stop offset="0" stop-color="#fbfbfb"/><stop offset="1" stop-color="#dcdcdc"/></linearGradient><radialGradient id="g" cx="24.446" cy="35.878" gradientTransform="matrix(1.995058 0 0 1.855412 -24.37145 -30.2043)" gradientUnits="userSpaceOnUse" r="20.531" xlink:href="#f"/><linearGradient id="h" gradientTransform="matrix(1.045319 0 0 .957884 -1.154429 1.415543)" gradientUnits="userSpaceOnUse" x1="20.092" x2="31.799" xlink:href="#e" y1="8.947" y2="38.947"/><linearGradient id="i" gradientTransform="matrix(.984324 0 0 .957884 .336637 1.415543)" gradientUnits="userSpaceOnUse" x1="24.446" x2="24.446" xlink:href="#f" y1=".498" y2="39.447"/><linearGradient id="j" gradientTransform="matrix(.476329 0 0 .627721 12.7549 9.156933)" gradientUnits="userSpaceOnUse" x1="31.597" x2="24.446" xlink:href="#e" y1="33.448" y2="21.067"/><radialGradient id="k" cx="24.399" cy="29.1" gradientTransform="matrix(2.407878 0 0 1.86105 -34.35094 -20.55775)" gradientUnits="userSpaceOnUse" r="6.027"><stop offset="0" stop-color="#525252"/><stop offset="1"/></radialGradient><linearGradient id="l" gradientTransform="matrix(1.059222 0 0 .808101 -1.234132 4.001391)" gradientUnits="userSpaceOnUse" x1="22.586" x2="22.586" y1="34.15" y2="11.043"><stop offset="0" stop-color="#fff"/><stop offset=".46" stop-color="#e3e3e3"/><stop offset=".62" stop-color="#dadada" stop-opacity=".671"/><stop offset="1" stop-color="#d1d1d1" stop-opacity=".343"/></linearGradient><linearGradient id="m" gradientUnits="userSpaceOnUse" x1="25.279" x2="28.284" xlink:href="#b" y1="28.555" y2="38.454"/><radialGradient id="n" cx="24.484" cy="29.61" gradientTransform="matrix(2.777122 -.08126449 .06891211 2.223012 -45.28558 -33.24798)" gradientUnits="userSpaceOnUse" r="4.477"><stop offset="0" stop-color="#fff"/><stop offset=".216" stop-color="#fff"/><stop offset=".5" stop-color="#838383"/><stop offset="1" stop-color="#838383" stop-opacity="0"/></radialGradient><path d="m-1559.2523-150.69685h1339.6335v478.35718h-1339.6335z" fill="url(#d)" opacity=".402" transform="matrix(.02312904 0 0 .01818338 45.14375 40.29231)"/><path d="m-219.61876-150.68038v478.33079c142.874166.90045 345.40022-107.16966 345.40014-239.196175 0-132.026537-159.436816-239.134595-345.40014-239.134615z" fill="url(#c)" opacity=".402" transform="matrix(.02312904 0 0 .01818338 45.14375 40.29231)"/><path d="m-1559.2523-150.68038v478.33079c-142.8742.90045-345.4002-107.16966-345.4002-239.196175 0-132.026537 159.4368-239.134595 345.4002-239.134615z" fill="url(#a)" opacity=".402" transform="matrix(.02312904 0 0 .01818338 45.14375 40.29231)"/><rect fill="url(#g)" fill-rule="evenodd" height="39.915" rx="5.455" stroke="#9b9b9b" stroke-linejoin="bevel" stroke-miterlimit="10" width="40.062" x="4.368" y="3.617"/><rect fill="none" height="37.782" rx="4.243" stroke="#fff" stroke-linejoin="bevel" stroke-miterlimit="10" width="37.697" x="5.551" y="4.651"/><g fill-rule="evenodd"><rect fill="url(#i)" height="32.706" rx="2.298" stroke="url(#h)" stroke-linejoin="bevel" stroke-miterlimit="10" width="24.258" x="12.27" y="7.522"/><rect fill="url(#k)" height="20.903" rx="1.591" stroke="url(#j)" stroke-linejoin="bevel" stroke-miterlimit="10" width="12.115" x="18.519" y="13.866"/><path d="m19.975767 34.034641 2.65165 2.651651 11.136932-.176776s-2.828427-9.369166-2.828427-9.369166-.707107-9.369166-.707107-9.369166l-.707107 15.909904z" fill="url(#m)" opacity=".316"/><g stroke-linejoin="bevel" stroke-miterlimit="10"><rect fill="#8a8a8a" height="4.315" rx="1.061" stroke="#595959" width="8.971" x="20.02" y="29.218"/><rect fill="url(#l)" height="15.812" rx=".884" stroke="url(#n)" width="8.912" x="20.05" y="15.231"/></g></g></svg>