<svg height="48" width="48" xmlns="http://www.w3.org/2000/svg" xmlns:xlink="http://www.w3.org/1999/xlink"><linearGradient id="a" gradientUnits="userSpaceOnUse" x1="13.944" x2="15.885" y1="10.335" y2="18.838"><stop offset="0" stop-color="#3465a4"/><stop offset=".333" stop-color="#5b86be"/><stop offset="1" stop-color="#83a8d8" stop-opacity="0"/></linearGradient><linearGradient id="b" gradientTransform="matrix(-1 0 0 -1 47.52791 45.84741)" gradientUnits="userSpaceOnUse" x1="37.128" x2="37.065" y1="29.73" y2="26.194"><stop offset="0" stop-color="#3465a4"/><stop offset="1" stop-color="#3465a4" stop-opacity="0"/></linearGradient><linearGradient id="c" gradientUnits="userSpaceOnUse" x1="5.965" x2="52.854" y1="26.048" y2="26.048"><stop offset="0" stop-color="#fff"/><stop offset="1" stop-color="#fff" stop-opacity="0"/></linearGradient><linearGradient id="d" gradientUnits="userSpaceOnUse" x1="46.835" x2="45.38" y1="45.264" y2="50.94"><stop offset="0" stop-color="#3465a4"/><stop offset="1" stop-color="#3465a4"/></linearGradient><radialGradient id="e" cx="24.837" cy="36.421" gradientTransform="matrix(1 0 0 .536723 0 16.87306)" gradientUnits="userSpaceOnUse" r="15.645"><stop offset="0"/><stop offset="1" stop-opacity="0"/></radialGradient><linearGradient id="f" gradientUnits="userSpaceOnUse" x1="62.514" x2="15.985" y1="36.061" y2="20.609"><stop offset="0" stop-color="#b9cfe7"/><stop offset="1" stop-color="#729fcf"/></linearGradient><linearGradient id="g" gradientUnits="userSpaceOnUse" x1="18.936" x2="53.589" y1="23.668" y2="26.649"><stop offset="0" stop-color="#729fcf"/><stop offset="1" stop-color="#528ac5"/></linearGradient><linearGradient id="h" gradientUnits="userSpaceOnUse" x1="36.714" x2="37.124" y1="31.456" y2="24.842"><stop offset="0" stop-color="#3977c3"/><stop offset="1" stop-color="#89aedc" stop-opacity="0"/></linearGradient><linearGradient id="i" gradientUnits="userSpaceOnUse" x1="32.648" x2="37.124" y1="30.749" y2="24.842"><stop offset="0" stop-color="#c4d7eb"/><stop offset="1" stop-color="#c4d7eb" stop-opacity="0"/></linearGradient><path d="m40.481863 36.421127a15.644737 8.3968935 0 1 1 -31.2894745 0 15.644737 8.3968935 0 1 1 31.2894745 0z" fill="url(#e)" fill-rule="evenodd" opacity=".383" transform="matrix(-1.489736 0 0 -1.001252 61.20865 75.2819)"/><path d="m20.152913 10.409904s-8.9375-.625-6.1875 9.875h-7.6874998s.5-11.875 13.8749998-9.875z" display="block" fill="url(#a)" stroke="url(#b)"/><path d="m44.306783 50.229694c18.514714-14.410835 5.357804-36.81799-21.844372-37.732044l-.348568-9.3461022-14.4892991 17.3452062 15.0897841 12.722435s-.251917-9.88122-.251917-9.88122c18.82976.998977 32.981627 14.071729 21.844372 26.891725z" display="block" fill="url(#f)" stroke="url(#d)" stroke-width="1.319" transform="matrix(-.579051 -.489228 -.489228 .579051 56.91585 13.37137)"/><path d="m28.375 33.4375s8.9375.625 6.1875-9.875h7.775888c0 1.502602-.588388 11.875-13.963388 9.875z" display="block" fill="url(#i)" stroke="url(#h)"/><path d="m44.306783 50.229694c18.514714-14.410835 5.357804-36.81799-21.844372-37.732044l-.062979-9.4286203-14.605489 17.3549753 14.668468 12.582344v-9.66838c18.82976.998977 32.981627 14.071729 21.844372 26.891725z" display="block" fill="url(#g)" stroke="url(#d)" stroke-width="1.319" transform="matrix(.579051 .489228 .489228 -.579051 -7.921023 30.53599)"/><path d="m7.0625 38.1875.0625-14.875 12.9375-.375-4.388873 5.178817 3.867225 2.373199c-3 2.25-4.549548 2.422128-5.549548 4.984628l-2.816858-2.110272z" fill="#fff" opacity=".272"/><path d="m51.090265 45.943705c9.1202-15.21975-4.458651-33.742575-31.605207-33.995126l.028406-8.2452956-12.9792661 15.5933556 12.8334631 10.972121s.05562-9.006878.05562-9.006878c17.527815-.223909 35.195185 10.103372 31.666984 24.681823z" display="block" fill="none" opacity=".5" stroke="url(#c)" stroke-width="1.502" transform="matrix(.508536 .429651 .429651 -.508536 -3.973188 30.54119)"/><path d="m51.389927 46.505946c9.1202-15.21975-4.339164-34.073587-31.761445-34.436191l-.285658-8.0190346-13.0015147 15.3287546 13.4677497 11.385114s-.181765-9.453243-.181765-9.453243c18.244937.381972 34.783881 10.925246 31.762633 25.1946z" display="block" fill="none" opacity=".5" stroke="url(#c)" stroke-width="1.502" transform="matrix(-.508536 -.429651 -.429651 .508536 53.049 13.36548)"/><path d="m6.8125 16.5c3.593435-10.4412725 16.443782-6.144607 20.1875-4.5 4.175307.211475 5.674736-2.835004 9-3-14.049736-9.7899963-28.8125-6.5-29.1875 7.5z" fill="#fff" opacity=".272"/></svg>