<svg height="44.791218" width="46.613056" xmlns="http://www.w3.org/2000/svg" xmlns:xlink="http://www.w3.org/1999/xlink"><linearGradient id="a" gradientTransform="matrix(-.579051 -.489228 -.489228 .579051 56.014489 10.940009)" gradientUnits="userSpaceOnUse" x1="46.834999" x2="45.380001" xlink:href="#h" y1="45.264" y2="50.939999"/><linearGradient id="b" gradientTransform="matrix(.579051 .489228 .489228 -.579051 -8.822384 28.104629)" gradientUnits="userSpaceOnUse" x1="46.834999" x2="45.380001" xlink:href="#h" y1="45.264" y2="50.939999"/><linearGradient id="c" gradientTransform="matrix(.508536 .429651 .429651 -.508536 -4.874549 28.109829)" gradientUnits="userSpaceOnUse" x1="5.965" x2="52.854" xlink:href="#g" y1="26.048" y2="26.048"/><linearGradient id="d" gradientTransform="matrix(-.508536 -.429651 -.429651 .508536 52.147639 10.934119)" gradientUnits="userSpaceOnUse" x1="5.965" x2="52.854" xlink:href="#g" y1="26.048" y2="26.048"/><linearGradient id="e" gradientUnits="userSpaceOnUse" x1="13.042639" x2="14.983639" y1="7.903639" y2="16.406638"><stop offset="0" stop-color="#3465a4"/><stop offset=".333" stop-color="#5b86be"/><stop offset="1" stop-color="#83a8d8" stop-opacity="0"/></linearGradient><linearGradient id="f" gradientTransform="matrix(-1 0 0 -1 46.626548 43.416048)" gradientUnits="userSpaceOnUse" x1="37.127998" x2="37.064999" y1="29.73" y2="26.194"><stop offset="0" stop-color="#3465a4"/><stop offset="1" stop-color="#3465a4" stop-opacity="0"/></linearGradient><linearGradient id="g" gradientUnits="userSpaceOnUse" x1="5.965" x2="52.854" y1="26.048" y2="26.048"><stop offset="0" stop-color="#fff"/><stop offset="1" stop-color="#fff" stop-opacity="0"/></linearGradient><linearGradient id="h" gradientUnits="userSpaceOnUse" x1="46.834999" x2="45.380001" y1="45.264" y2="50.939999"><stop offset="0" stop-color="#3465a4"/><stop offset="1" stop-color="#3465a4"/></linearGradient><radialGradient id="i" cx="24.837" cy="36.421001" gradientTransform="matrix(-1.489736 0 0 -.53739498 60.307289 55.956354)" gradientUnits="userSpaceOnUse" r="15.645"><stop offset="0"/><stop offset="1" stop-opacity="0"/></radialGradient><linearGradient id="j" gradientTransform="matrix(-.579051 -.489228 -.489228 .579051 56.014489 10.940009)" gradientUnits="userSpaceOnUse" x1="62.514" x2="15.985" y1="36.061001" y2="20.608999"><stop offset="0" stop-color="#b9cfe7"/><stop offset="1" stop-color="#729fcf"/></linearGradient><linearGradient id="k" gradientTransform="matrix(.579051 .489228 .489228 -.579051 -8.822384 28.104629)" gradientUnits="userSpaceOnUse" x1="18.936001" x2="53.589001" y1="23.667999" y2="26.649"><stop offset="0" stop-color="#729fcf"/><stop offset="1" stop-color="#528ac5"/></linearGradient><linearGradient id="l" gradientUnits="userSpaceOnUse" x1="35.81264" x2="36.22264" y1="29.024638" y2="22.410638"><stop offset="0" stop-color="#3977c3"/><stop offset="1" stop-color="#89aedc" stop-opacity="0"/></linearGradient><linearGradient id="m" gradientUnits="userSpaceOnUse" x1="31.746638" x2="36.22264" y1="28.31764" y2="22.410638"><stop offset="0" stop-color="#c4d7eb"/><stop offset="1" stop-color="#c4d7eb" stop-opacity="0"/></linearGradient><path d="m0 36.383813a23.306528 8.4074068 0 1 1 46.613057 0 23.306528 8.4074068 0 1 1 -46.613057 0z" fill="url(#i)" fill-rule="evenodd" opacity=".383" stroke-width="1.221311"/><path d="m19.251552 7.9785429s-8.9375-.625-6.1875 9.8750001h-7.6875001s.5-11.8750001 13.8750001-9.8750001z" display="block" fill="url(#e)" stroke="url(#f)"/><path d="m5.7848289 18.349445c-3.6707797-17.40252531 14.9099501-23.9406821 31.1085781-11.1618998l4.774213-5.2413406-.095717 17.1323294-14.961926-.015406s4.980042-5.598485 4.980042-5.598485c-11.392119-8.6335874-25.9823277-7.9872869-25.8051901 4.884802z" display="block" fill="url(#j)" stroke="url(#a)" stroke-width=".999872"/><path d="m27.473639 31.006139s8.9375.625 6.1875-9.875h7.775888c0 1.502602-.588388 11.875-13.963388 9.875z" display="block" fill="url(#m)" stroke="url(#l)"/><path d="m41.407275 20.695193c3.67078 17.402525-14.909949 23.940682-31.108577 11.1619l-4.6492136 5.428841.033217-17.19483 14.6494256-.109594-4.730042 5.598485c11.392119 8.633587 25.982328 7.987287 25.80519-4.884802z" display="block" fill="url(#k)" stroke="url(#b)" stroke-width=".999872"/><path d="m6.1611387 35.756139.0625-14.875 12.9375003-.375-4.388873 5.178817 3.867225 2.373199c-3 2.25-4.549548 2.422128-5.549548 4.984628l-2.816858-2.110272z" fill="#fff" opacity=".272"/><path d="m40.846448 26.696784c-1.90123 11.658294-16.764915 15.243651-30.678425 3.708537l-3.528154 4.205234.0992768-13.506337 11.2404612-.065808s-3.84153 4.604219-3.84153 4.604219c8.817322 7.644709 22.238943 9.983718 26.708371 1.054155z" display="block" fill="none" opacity=".5" stroke="url(#c)" stroke-width=".99994"/><path d="m6.0326845 12.504333c1.9012308-11.6582937 16.8463715-15.4633194 30.9473825-3.8657061l3.590653-3.9552345.02572 13.3813376-11.740461.0033s4.154029-4.729219 4.154029-4.729219c-9.442318-7.6447009-22.382895-9.3890403-26.9773235-.834478z" display="block" fill="none" opacity=".5" stroke="url(#d)" stroke-width=".99994"/><path d="m5.9111387 14.068639c3.593435-10.4412726 16.4437823-6.1446071 20.1875003-4.5000001 4.175307.211475 5.674736-2.835004 9-3-14.049736-9.7899963-28.8125003-6.5-29.1875003 7.5000001z" fill="#fff" opacity=".272"/></svg>