<svg height="48" width="48" xmlns="http://www.w3.org/2000/svg" xmlns:xlink="http://www.w3.org/1999/xlink"><radialGradient id="a" cx="19.701141" cy="2.896938" gradientTransform="matrix(2.046729 0 0 1.55761 -19.51799 3.452086)" gradientUnits="userSpaceOnUse" r="17.171415"><stop offset="0" stop-color="#fff"/><stop offset="1" stop-color="#fff" stop-opacity="0"/></radialGradient><radialGradient id="b" cx="24.837126" cy="36.421127" gradientTransform="matrix(1 0 0 .536723 0 16.87306)" gradientUnits="userSpaceOnUse" r="15.644737"><stop offset="0"/><stop offset="1" stop-opacity="0"/></radialGradient><radialGradient id="c" cx="22.291636" cy="32.797512" gradientTransform="matrix(.843022 0 0 1.020168 4.499298 1.381992)" gradientUnits="userSpaceOnUse" r="16.9562"><stop offset="0" stop-color="#73d216"/><stop offset="1" stop-color="#4e9a06"/></radialGradient><g fill-rule="evenodd"><path d="m40.481863 36.421127a15.644737 8.3968935 0 1 1 -31.2894745 0 15.644737 8.3968935 0 1 1 31.2894745 0z" fill="url(#b)" opacity=".299465" transform="matrix(1.271186 0 0 1.271186 -8.119376 -15.10179)"/><path d="m8.5541875 15.517348v16.99442h12.9838125v8.545038l19.959835-16.906441-20.078645-17.0252482v8.3975352l-12.8650025-.005304z" fill="url(#c)" stroke="#3a7304" stroke-linecap="round" stroke-linejoin="round" stroke-miterlimit="10"/><path d="m21.962385 8.2485033v7.8064747h-12.8171699v9.040713c17.7499999 2 16.6335369-7.455288 31.3835369-.955288l-18.566367-15.8918997z" fill="url(#a)" opacity=".508021"/></g><path d="m9.537702 16.561892v14.98444h12.985367v7.395166l17.478014-14.795691-17.493975-14.7804004v7.2013824l-12.969406-.004897z" fill="none" opacity=".481283" stroke="#fff" stroke-miterlimit="10"/></svg>