<svg height="42.112968" width="49.801266" xmlns="http://www.w3.org/2000/svg" xmlns:xlink="http://www.w3.org/1999/xlink"><radialGradient id="a" cx="605.71399" cy="486.64801" gradientTransform="matrix(-.06804855 0 0 .041103 49.48194 14.962754)" gradientUnits="userSpaceOnUse" r="117.143" xlink:href="#b"/><linearGradient id="b"><stop offset="0"/><stop offset="1" stop-opacity="0"/></linearGradient><radialGradient id="c" cx="605.71399" cy="486.64801" gradientTransform="matrix(.06804855 0 0 .041103 .319335 14.962754)" gradientUnits="userSpaceOnUse" r="117.143" xlink:href="#b"/><linearGradient id="d" gradientTransform="matrix(.06804855 0 0 .041103 .305943 14.962754)" gradientUnits="userSpaceOnUse" x1="302.85699" x2="302.85699" y1="366.64801" y2="609.505"><stop offset="0" stop-opacity="0"/><stop offset=".5"/><stop offset="1" stop-opacity="0"/></linearGradient><linearGradient id="e"><stop offset="0" stop-color="#fff"/><stop offset="1" stop-color="#fff" stop-opacity="0"/></linearGradient><linearGradient id="f"><stop offset="0" stop-color="#555753"/><stop offset="1" stop-color="#313330"/></linearGradient><linearGradient id="g"><stop offset="0" stop-color="#fff"/><stop offset="1" stop-color="#cbcbcb"/></linearGradient><radialGradient id="h" cx="25.375" cy="36.813" gradientTransform="matrix(.693194 0 0 .36785651 15.476304 22.133742)" gradientUnits="userSpaceOnUse" r="17.5" xlink:href="#b"/><linearGradient id="i" gradientUnits="userSpaceOnUse" x1="22.66552556708" x2="39.847182968" y1="33.76762283015" y2="24.577940418"><stop offset="0" stop-color="#363d40"/><stop offset=".5" stop-color="#818f95"/><stop offset="1" stop-color="#31383b"/></linearGradient><linearGradient id="j" gradientUnits="userSpaceOnUse" x1="24.03411502008" x2="35.12649530908" y1="31.59750175192" y2="26.847800391"><stop offset="0" stop-color="#8b8b8b"/><stop offset=".5" stop-color="#d3d9da"/><stop offset="1" stop-color="#828282"/></linearGradient><radialGradient id="k" cx="16.875" cy="23.672001" gradientTransform="matrix(1.676984 0 0 1.6996468 5.054533 -7.698837)" gradientUnits="userSpaceOnUse" r="4.625"><stop offset="0" stop-color="#7a7a7a"/><stop offset="1"/></radialGradient><linearGradient id="l" gradientUnits="userSpaceOnUse" x1="26.580299624" x2="35.94793392498" y1="24.42194709298" y2="38.213461832"><stop offset="0" stop-color="#010101"/><stop offset="1" stop-color="#959595"/></linearGradient><linearGradient id="m" gradientTransform="matrix(.655244 0 0 1.898477 16.508054 -39.6888)" gradientUnits="userSpaceOnUse" x1="6.56" x2="6.56" xlink:href="#g" y1="29.374001" y2="30.191"/><linearGradient id="n" gradientTransform="matrix(1.477785 0 0 1.982181 20.133584 -55.74468)" gradientUnits="userSpaceOnUse" x1="6.56" x2="6.56" xlink:href="#g" y1="29.374001" y2="30.191"/><linearGradient id="o" gradientTransform="matrix(1.318423 0 0 .773191 20.273474 -18.35723)" gradientUnits="userSpaceOnUse" x1="7.915" x2="7.915" y1="30.816999" y2="24.701"><stop offset="0" stop-color="#eee"/><stop offset="1" stop-color="#a2a2a2"/></linearGradient><linearGradient id="p" gradientUnits="userSpaceOnUse" x1="30.961114" x2="30.961114" y1="5.275" y2="8.71"><stop offset="0" stop-color="#555753"/><stop offset="1" stop-color="#141514"/></linearGradient><linearGradient id="q" gradientUnits="userSpaceOnUse" x1="18.233114" x2="37.454114" xlink:href="#e" y1="11.988" y2="52.988"/><linearGradient id="r" gradientTransform="matrix(1.024993 0 0 1 1.498163 -4.137)" gradientUnits="userSpaceOnUse" x1="7.871" x2="14.844" xlink:href="#f" y1="29.719" y2="29.719"/><linearGradient id="s" gradientUnits="userSpaceOnUse" x1="17.919115" x2="31.696113" y1="21.956" y2="21.956"><stop offset="0" stop-color="#353633"/><stop offset="1" stop-color="#676964"/></linearGradient><linearGradient id="t" gradientTransform="matrix(1.035758 0 0 1 1.403641 -3.93497)" gradientUnits="userSpaceOnUse" x1="7.871" x2="14.844" xlink:href="#f" y1="29.719" y2="29.719"/><radialGradient id="u" cx="14.75" cy="22.688" gradientTransform="matrix(.41273 0 0 .42747024 29.017474 24.510548)" gradientUnits="userSpaceOnUse" r="1.75" xlink:href="#e"/><g stroke-width=".022624"><path d="m8.4717689 30.033081h32.8577271v9.982157h-32.8577271z" fill="url(#d)" opacity=".402"/><path d="m41.329497 30.033425v9.981606c3.504331.01879 8.471769-2.236371 8.471767-4.991445 0-2.755075-3.910571-4.990161-8.471767-4.990161z" fill="url(#c)" opacity=".402"/><path d="m8.4717689 30.033425v9.981606c-3.5043327.01879-8.4717689-2.236371-8.4717689-4.991445 0-2.755075 3.9105702-4.990161 8.4717689-4.990161z" fill="url(#a)" opacity=".402"/></g><path d="m45.196996 35.675474a12.130895 6.4374951 0 1 1 -24.26179 0 12.130895 6.4374951 0 1 1 24.26179 0z" display="block" fill="url(#h)" opacity=".399" stroke-width=".749797"/><path d="m10.49889 14.78378c-3.4712692 0-6.279283 1.12-6.279283 2.5 0 .156792.1570095.288682.2265721.4375-.010187.04943-.097102.04118-.097102.09375 0 0-.1294698 16.311958-.1294698 16.46875 0 1.38 2.8080138 2.5 6.2792827 2.5 3.47127 0 6.279283-1.12 6.279283-2.5l-.129469-16.46875c0-.05257-.08692-.04432-.0971-.09375.06956-.148818.226572-.280708.226572-.4375 0-1.38-2.808013-2.5-6.279283-2.5z" display="block" fill="url(#t)" stroke="#282828" stroke-width="2"/><path d="m3.7089708 34.510933h40.1428572c1.111168.101015 2.219362-1.150036 2.219362-1.857143v-17.647933c-.101015-1.111168-3.96897-2.423755-4.878107-2.52477h-2.432118l-2.923525-3.0849621h-10.55704l-3.435468 3.0314071s-6.726815.211654-11.9411096 1.167085-6.3377087 2.587274-6.3377087 3.799457z" display="block" fill="url(#s)" stroke="#282828"/><path d="m35.456732 9.7703519 1.363706 3.7880721 1.868782-.454569z" display="block" fill="#3f413e"/><path d="m44.09448 28.458116a2.4758661 2.4758661 0 1 1 -4.951732 0 2.4758661 2.4758661 0 1 1 4.951732 0z" display="block" fill="#585b57" stroke="#a7a7a7" stroke-width="1.000504"/><path d="m42.336049 27.83259a10.983934 10.983934 0 1 1 -21.967867 0 10.983934 10.983934 0 1 1 21.967867 0z" display="block" fill="url(#i)" stroke-width="1.082923"/><path d="m42.501511 29.722344a10.983934 10.983934 0 1 1 -21.967867 0 10.983934 10.983934 0 1 1 21.967867 0z" display="block" fill="url(#j)" stroke-width="1.082923"/><path d="m10.498887 14.58175c-3.4351929 0-6.2140233 1.12-6.2140233 2.5 0 .156792.1553777.288682.2242173.4375-.010081.04943-.096093.04118-.096093.09375 0 0-.1281242 16.311958-.1281242 16.46875 0 1.38 2.7788304 2.5 6.2140232 2.5 3.435193 0 6.214023-1.12 6.214023-2.5l-.128124-16.46875c0-.05257-.08601-.04432-.09609-.09375.06884-.148818.224218-.280708.224218-.4375 0-1.38-2.77883-2.5-6.214023-2.5z" display="block" fill="url(#r)"/><path d="m25.809775 10.02289-.757614 3.636549-.353554 1.212183-2.77792-2.070813z" display="block" fill="#7b7e79"/><path d="m20.596195 23.8583 4.910534-8.582617h11.212694l4.838579 7.115358-4.737564-8.731602h-11.818785z" display="block" fill="#a7aba7"/><path d="m21.878614 12.738s-12.1458963.638063-16.1562503 2.75c-.8520399.448702-1.4880076.840607-1.4880076 1.442227 0 1.38 2.824079 3.026523 6.1755079 3.026523 3.351429 0 6-1.495 6-2.875 0-.314339-.179931-.629054-.4375-.90625l8.625-1.8125z" display="block" fill="#888a85"/><path d="m26.119325 10.345118-3.917302 2.792985c0 .000001-6.444742.435034-11.249177 1.315365-4.8044353.880332-6.2201123 1.833425-6.3451123 3.012826l.226119 16.591424c.2959617 1.161082 3.2300568 2.073143 6.2285733 2.073143 2.998516 0 5.501388-1.599561 5.79735-2.760643l26.487981.125c1.461328.03057 1.731849-.701093 1.731849-1.352619v-16.677122c0-.711984-2.841634-1.864212-3.67931-1.957287l-2.933405.0625-3.24031-3.225572z" display="block" fill="none" opacity=".418" stroke="url(#q)"/><path d="m42.605659 30.649424a10.983934 10.983934 0 1 1 -21.967867 0 10.983934 10.983934 0 1 1 21.967867 0z" display="block" fill="#2e3436" stroke-width="1.082923"/><path d="m38.38459 30.649425a6.917559 7.0223705 0 1 1 -13.835118 0 6.917559 7.0223705 0 1 1 13.835118 0z" fill="url(#k)" stroke="url(#l)" stroke-width=".999483"/><path d="m34.736298 30.7144a2.934722 3.0395335 0 1 1 -5.869444 0 2.934722 3.0395335 0 1 1 5.869444 0z" fill="#fff" fill-opacity=".529" opacity=".608" stroke-width="1.676984"/><path d="m32.508596 28.824199a2.9281788 3.0327566 0 1 1 -5.856357 0 2.9281788 3.0327566 0 1 1 5.856357 0z" fill="#fff" opacity=".373" stroke-width="1.673245"/><path d="m35.827519 34.208782a.7222775.74807312 0 1 1 -1.444555 0 .7222775.74807312 0 1 1 1.444555 0z" fill="url(#u)" stroke-width=".41273"/><path d="m23.78947 11.437103 2.929442-2.1213201.909137-2.424366h6.363961l1.313199 2.929443 2.828427 2.4243651-2.525381-10.9096473h-9.899495z" display="block" fill="url(#p)"/><rect fill="url(#n)" height="4.584" rx="1.504" stroke="url(#o)" width="9.329001" x="26.045115" y=".5"/><path d="m14.604976 17.119916a2.182339 1.3858602 0 1 1 -4.364678 0 2.182339 1.3858602 0 1 1 4.364678 0z" display="block" fill="#2f302e" stroke-width=".446381"/><path d="m4.2695408 17.113564c-.1355518 1.785664 2.4438455 3.880204 6.1953692 3.881473 3.814025.0013 5.849431-2.18382 6.051461-4.10311l4.545687-1.717259-5.151778 1.010152c.101016 1.91929-1.701837 3.830458-5.440293 3.771004-4.0863668-.06598-5.5754462-1.65476-6.2004462-2.84226z" display="block" fill="#c4c6c3"/><rect fill="url(#m)" height="4.39" rx=".695" stroke="#464646" width="4.136" x="19.129114" y="14.179999"/><path d="m12.450868 17.093971a.68221125.70657594 0 1 1 -1.364422 0 .68221125.70657594 0 1 1 1.364422 0z" fill="#fff" opacity=".43" stroke-width=".389835"/><path d="m29.394619 27.604256a.7981925.82669938 0 1 1 -1.596385 0 .7981925.82669938 0 1 1 1.596385 0z" fill="#fff" stroke-width=".45611"/><path d="m44.253633 16.800505a1.6875008 1.1250002 0 1 1 -3.375001 0 1.6875008 1.1250002 0 1 1 3.375001 0z" display="block" fill="#c5c5c5" fill-opacity=".529" stroke-width="1.303573"/><path d="m44.316133 17.175505a1.6875008 1.1250002 0 1 1 -3.375001 0 1.6875008 1.1250002 0 1 1 3.375001 0z" display="block" fill="#565656" stroke-width="1.303573"/><path d="m24.837471 24.285173c2.602739-3.367642 8.755661-4.192713 12.274919-1.041239" display="block" fill="none" stroke="#777"/><path d="m31.786095 27.681049c-1.619967 0-2.910355 1.367899-2.910355 3.045722 0 .383845.246717.643162.372255.981399.12668.01735.207178.135365.338413.135365 1.616354 0 2.910355-1.337799 2.910355-3.01188 0-.39361-.27415-.670063-.406095-1.01524-.11496-.01419-.185943-.135366-.304573-.135366z" fill="#fff" opacity=".671"/></svg>