<svg height="48" width="48" xmlns="http://www.w3.org/2000/svg" xmlns:xlink="http://www.w3.org/1999/xlink"><radialGradient id="a" cx="605.71429" cy="486.64789" gradientTransform="matrix(-2.774389 0 0 1.969706 112.7623 -872.8854)" gradientUnits="userSpaceOnUse" r="117.14286" xlink:href="#b"/><linearGradient id="b"><stop offset="0"/><stop offset="1" stop-opacity="0"/></linearGradient><radialGradient id="c" cx="605.71429" cy="486.64789" gradientTransform="matrix(2.774389 0 0 1.969706 -1891.633 -872.8854)" gradientUnits="userSpaceOnUse" r="117.14286" xlink:href="#b"/><linearGradient id="d" gradientTransform="matrix(2.774389 0 0 1.969706 -1892.179 -872.8854)" gradientUnits="userSpaceOnUse" x1="302.85715" x2="302.85715" y1="366.64789" y2="609.50507"><stop offset="0" stop-opacity="0"/><stop offset=".5"/><stop offset="1" stop-opacity="0"/></linearGradient><linearGradient id="e"><stop offset="0" stop-color="#fff"/><stop offset="1" stop-color="#fff" stop-opacity="0"/></linearGradient><linearGradient id="f"><stop offset="0" stop-color="#555753"/><stop offset="1" stop-color="#313330"/></linearGradient><linearGradient id="g"><stop offset="0" stop-color="#fff"/><stop offset="1" stop-color="#cbcbcb"/></linearGradient><radialGradient id="h" cx="25.375" cy="36.8125" gradientTransform="matrix(1 0 0 .453571 0 20.1154)" gradientUnits="userSpaceOnUse" r="17.5" xlink:href="#b"/><linearGradient id="i" gradientUnits="userSpaceOnUse" x1="22.549892" x2="38.416191" y1="39.051506" y2="30.566227"><stop offset="0" stop-color="#363d40"/><stop offset=".5" stop-color="#818f95"/><stop offset="1" stop-color="#31383b"/></linearGradient><linearGradient id="j" gradientUnits="userSpaceOnUse" x1="23.660564" x2="33.904015" y1="35.302856" y2="30.916578"><stop offset="0" stop-color="#8b8b8b"/><stop offset=".5" stop-color="#d3d9da"/><stop offset="1" stop-color="#828282"/></linearGradient><radialGradient id="k" cx="16.875" cy="23.672499" gradientTransform="matrix(1 0 0 1.013514 0 -.304899)" gradientUnits="userSpaceOnUse" r="4.625"><stop offset="0" stop-color="#7a7a7a"/><stop offset="1"/></radialGradient><linearGradient id="l" gradientUnits="userSpaceOnUse" x1="12.835793" x2="18.422049" y1="18.849401" y2="27.072878"><stop offset="0" stop-color="#010101"/><stop offset="1" stop-color="#959595"/></linearGradient><linearGradient id="m" gradientTransform="matrix(.655244 0 0 1.898477 14.94194 -35.5518)" gradientUnits="userSpaceOnUse" x1="6.559583" x2="6.559583" xlink:href="#g" y1="29.37381" y2="30.191154"/><linearGradient id="n" gradientTransform="matrix(1.477785 0 0 1.982181 18.56747 -51.60768)" gradientUnits="userSpaceOnUse" x1="6.559583" x2="6.559583" xlink:href="#g" y1="29.37381" y2="30.191154"/><linearGradient id="o" gradientTransform="matrix(1.318423 0 0 .773191 18.70736 -14.22023)" gradientUnits="userSpaceOnUse" x1="7.915134" x2="7.915134" y1="30.816841" y2="24.700985"><stop offset="0" stop-color="#eee"/><stop offset="1" stop-color="#a2a2a2"/></linearGradient><linearGradient id="p" gradientUnits="userSpaceOnUse" x1="29.395439" x2="29.395439" y1="9.412171" y2="12.84669"><stop offset="0" stop-color="#555753"/><stop offset="1" stop-color="#141514"/></linearGradient><linearGradient id="q" gradientUnits="userSpaceOnUse" x1="16.66662" x2="35.888493" xlink:href="#e" y1="16.12499" y2="57.124992"/><linearGradient id="r" gradientTransform="matrix(1.024993 0 0 1 -.067951 0)" gradientUnits="userSpaceOnUse" x1="7.870528" x2="14.84375" xlink:href="#f" y1="29.71875" y2="29.71875"/><linearGradient id="s" gradientUnits="userSpaceOnUse" x1="16.353432" x2="30.130077" y1="26.09341" y2="26.09341"><stop offset="0" stop-color="#353633"/><stop offset="1" stop-color="#676964"/></linearGradient><linearGradient id="t" gradientTransform="matrix(1.035758 0 0 1 -.162473 .20203)" gradientUnits="userSpaceOnUse" x1="7.870528" x2="14.84375" xlink:href="#f" y1="29.71875" y2="29.71875"/><radialGradient id="u" cx="14.75" cy="22.6875" gradientTransform="matrix(1 0 0 1.035714 0 -.810268)" gradientUnits="userSpaceOnUse" r="1.75" xlink:href="#e"/><g transform="matrix(.0245274 0 0 .02086758 45.15006 37.31476)"><path d="m-1559.2523-150.69685h1339.6335v478.35718h-1339.6335z" fill="url(#d)" opacity=".402062"/><path d="m-219.61876-150.68038v478.33079c142.874166.90045 345.40022-107.16966 345.40014-239.196175 0-132.026537-159.436816-239.134595-345.40014-239.134615z" fill="url(#c)" opacity=".402062"/><path d="m-1559.2523-150.68038v478.33079c-142.8742.90045-345.4002-107.16966-345.4002-239.196175 0-132.026537 159.4368-239.134595 345.4002-239.134615z" fill="url(#a)" opacity=".402062"/></g><path d="m42.875 36.8125a17.5 7.9375 0 1 1 -35 0 17.5 7.9375 0 1 1 35 0z" display="block" fill="url(#h)" opacity=".398734" transform="matrix(.693194 0 0 .811023 13.91019 9.95669)"/><path d="m8.9327762 18.92078c-3.4712691 0-6.2792829 1.12-6.2792829 2.5 0 .156792.1570095.288682.2265721.4375-.0101865.049432-.0971023.04118-.0971023.09375 0 0-.1294698 16.311958-.1294698 16.46875 0 1.38 2.8080138 2.5 6.2792829 2.5 3.4712698 0 6.2792828-1.12 6.2792828-2.5l-.129469-16.46875c0-.05257-.086916-.044318-.097103-.09375.069563-.148818.226572-.280708.226572-.4375 0-1.38-2.808013-2.5-6.2792828-2.5z" display="block" fill="url(#t)" stroke="#282828" stroke-width="2"/><path d="m2.1428571 38.647933h40.1428569c1.111168.101015 2.219362-1.150036 2.219362-1.857143v-17.647933c-.101015-1.111168-3.96897-2.423755-4.878107-2.52477h-2.432118l-2.923525-3.084962h-10.55704l-3.435468 3.031407s-6.726815.211654-11.9411093 1.167085c-5.2142946.955431-6.3377087 2.587274-6.3377087 3.799457l.1428571 17.116859z" display="block" fill="url(#s)" stroke="#282828"/><path d="m33.890618 13.907352 1.363706 3.788072 1.868782-.454569-3.232488-3.333503z" display="block" fill="#3f413e"/><path d="m43.133513 33.908371a1.9697975 1.9697975 0 1 1 -3.939595 0 1.9697975 1.9697975 0 1 1 3.939595 0z" display="block" fill="#585b57" stroke="#a7a7a7" stroke-width=".795599" transform="matrix(1.256914 0 0 1.256914 -11.68675 -10.02479)"/><path d="m40.714286 33.57143a10.142858 10.142858 0 1 1 -20.285715 0 10.142858 10.142858 0 1 1 20.285715 0z" display="block" fill="url(#i)" transform="matrix(1.082923 0 0 1.082923 -3.320501 -4.385684)"/><path d="m40.714286 33.57143a10.142858 10.142858 0 1 1 -20.285715 0 10.142858 10.142858 0 1 1 20.285715 0z" display="block" fill="url(#j)" transform="matrix(1.082923 0 0 1.082923 -3.155039 -2.49593)"/><path d="m8.9327729 18.71875c-3.4351925 0-6.2140229 1.12-6.2140229 2.5 0 .156792.1553777.288682.2242173.4375-.0100806.049432-.0960931.04118-.0960931.09375 0 0-.1281242 16.311958-.1281242 16.46875 0 1.38 2.7788304 2.5 6.2140229 2.5 3.4351931 0 6.2140231-1.12 6.2140231-2.5l-.128124-16.46875c0-.05257-.086013-.044318-.096094-.09375.06884-.148818.224218-.280708.224218-.4375 0-1.38-2.77883-2.5-6.2140231-2.5z" display="block" fill="url(#r)"/><path d="m24.243661 14.15989-.757614 3.636549-.353554 1.212183-2.77792-2.070813 3.889088-2.777919z" display="block" fill="#7b7e79"/><path d="m19.030081 27.9953 4.910534-8.582617h11.212694l4.838579 7.115358-4.737564-8.731602h-11.818785l-4.405458 10.198861z" display="block" fill="#a7aba7"/><path d="m20.3125 16.875s-12.145896.638063-16.15625 2.75c-.8520399.448702-1.4880076.840607-1.4880076 1.442227 0 1.38 2.824079 3.026523 6.1755076 3.026523 3.351429 0 6-1.495 6-2.875 0-.314339-.179931-.629054-.4375-.90625l8.625-1.8125-2.71875-1.625z" display="block" fill="#888a85"/><path d="m24.553211 14.482118-3.917302 2.792985c0 .000001-6.444742.435034-11.2491768 1.315365-4.8044352.880332-6.2201122 1.833425-6.3451122 3.012826l.226119 16.591424c.2959617 1.161082 3.2300568 2.073143 6.228573 2.073143 2.998516 0 5.501388-1.599561 5.79735-2.760643l26.487981.125c1.461328.030574 1.731849-.701093 1.731849-1.352619v-16.677122c0-.711984-2.841634-1.864212-3.67931-1.957287l-2.933405.0625-3.24031-3.225572h-9.107256z" display="block" fill="none" opacity=".417721" stroke="url(#q)"/><path d="m40.714286 33.57143a10.142858 10.142858 0 1 1 -20.285715 0 10.142858 10.142858 0 1 1 20.285715 0z" display="block" fill="#2e3436" transform="matrix(1.082923 0 0 1.082923 -3.050891 -1.56885)"/><path d="m19.875 22.5625a4.125 4.1875 0 1 1 -8.25 0 4.125 4.1875 0 1 1 8.25 0z" fill="url(#k)" stroke="url(#l)" stroke-width=".596309" transform="matrix(1.676984 0 0 1.676984 3.488419 -3.050526)"/><path d="m16.5 22.6875a1.75 1.8125 0 1 1 -3.5 0 1.75 1.8125 0 1 1 3.5 0z" fill="#fff" fill-opacity=".528662" opacity=".607595" transform="matrix(1.676984 0 0 1.676984 5.499948 -3.195174)"/><path d="m16.5 22.6875a1.75 1.8125 0 1 1 -3.5 0 1.75 1.8125 0 1 1 3.5 0z" fill="#fff" opacity=".373418" transform="matrix(1.673245 0 0 1.673245 3.33394 -5.000547)"/><path d="m16.5 22.6875a1.75 1.8125 0 1 1 -3.5 0 1.75 1.8125 0 1 1 3.5 0z" fill="url(#u)" transform="matrix(.41273 0 0 .41273 27.45136 28.98197)"/><path d="m22.223356 15.574103 2.929442-2.12132.909137-2.424366h6.363961l1.313199 2.929443 2.828427 2.424365-2.525381-10.9096472h-9.899495l-1.91929 10.1015252z" display="block" fill="url(#p)"/><rect fill="url(#n)" height="4.583793" rx="1.503544" ry="1.503545" stroke="url(#o)" width="9.328516" x="24.478594" y="4.636678"/><path d="m14.857143 38.214287a6.0714288 2.5 0 1 1 -12.1428576 0 6.0714288 2.5 0 1 1 12.1428576 0z" display="block" fill="#2f302e" transform="matrix(.359444 0 0 .554344 7.698551 .073055)"/><path d="m2.7034271 21.250564c-.1355518 1.785664 2.4438455 3.880204 6.1953695 3.881473 3.8140244.001269 5.8494304-2.18382 6.0514604-4.10311l4.545687-1.717259-5.151778 1.010152c.101016 1.91929-1.701837 3.830458-5.4402931 3.771004-4.0863664-.065981-5.5754458-1.65476-6.2004458-2.84226z" display="block" fill="#c4c6c3"/><rect fill="url(#m)" height="4.390228" rx=".695423" ry=".695424" stroke="#464646" width="4.136231" x="17.562916" y="18.317474"/><path d="m16.5 22.6875a1.75 1.8125 0 1 1 -3.5 0 1.75 1.8125 0 1 1 3.5 0z" fill="#fff" opacity=".43038" transform="matrix(.389835 0 0 .389835 4.452477 12.38659)"/><path d="m16.5 22.6875a1.75 1.8125 0 1 1 -3.5 0 1.75 1.8125 0 1 1 3.5 0z" fill="#fff" transform="matrix(.45611 0 0 .45611 20.30269 21.39326)"/><path d="m42.25 20.5625a1.625.6875 0 1 1 -3.25 0 1.625.6875 0 1 1 3.25 0z" display="block" fill="#c5c5c5" fill-opacity=".528662" transform="matrix(1.038462 0 0 1.636364 -1.1875 -12.71023)"/><path d="m42.25 20.5625a1.625.6875 0 1 1 -3.25 0 1.625.6875 0 1 1 3.25 0z" display="block" fill="#565656" transform="matrix(1.038462 0 0 1.636364 -1.125 -12.33523)"/><path d="m23.271357 28.422173c2.602739-3.367642 8.755661-4.192713 12.274919-1.041239" display="block" fill="none" stroke="#777" stroke-width="1.000001"/><path d="m30.219981 31.818049c-1.619967 0-2.910355 1.367899-2.910355 3.045722 0 .383845.246717.643162.372255.981399.12668.017354.207178.135365.338413.135365 1.616354 0 2.910355-1.337799 2.910355-3.01188 0-.39361-.27415-.670063-.406095-1.01524-.11496-.014194-.185943-.135366-.304573-.135366z" fill="#fff" opacity=".670886"/></svg>