<svg height="48" width="48" xmlns="http://www.w3.org/2000/svg" xmlns:xlink="http://www.w3.org/1999/xlink"><radialGradient id="a" cx="25.456" cy="39.161" gradientTransform="matrix(1 0 0 .315315 0 26.81305)" gradientUnits="userSpaceOnUse" r="19.622"><stop offset="0"/><stop offset="1" stop-opacity="0"/></radialGradient><linearGradient id="b" gradientUnits="userSpaceOnUse" x1="12.934" x2="37.862" y1="8.048" y2="42.077"><stop offset="0" stop-color="#c9c9c9"/><stop offset=".25" stop-color="#f8f8f8"/><stop offset=".5" stop-color="#e2e2e2"/><stop offset=".75" stop-color="#b0b0b0"/><stop offset="1" stop-color="#c9c9c9"/></linearGradient><path d="m45.078058 39.161163a19.622213 6.1871843 0 1 1 -39.2444265 0 19.622213 6.1871843 0 1 1 39.2444265 0z" fill="url(#a)" opacity=".409" transform="translate(-.883885 2.474874)"/><path d="m23.25.46875c-.465439.03184628-.917834.10393469-1.375.15625h-.03125l-1.09375 5.96875c-1.782725.4059899-3.459909 1.0949915-4.96875 2.03125l-4.90625-3.53125c-1.3262882 1.0296906-2.5331984 2.2305953-3.59375 3.53125l3.40625 4.96875c-1.0342329 1.580515-1.8119683 3.385224-2.25 5.28125-.000075.008963-.0000609.029688 0 .03125l-5.9375.9375c-.1085533.886633-.15625 1.802939-.15625 2.71875.0000001.7493.0206894 1.488589.09375 2.21875l5.9375 1.0625c.422279 2.061892 1.2244587 3.987512 2.34375 5.6875l-3.53125 4.84375c1.0113261 1.255518 2.1788917 2.398616 3.4375 3.40625l5-3.4375c1.747433 1.114717 3.698083 1.896374 5.8125 2.28125l.9375 5.90625c.666183.060639 1.349349.0625 2.03125.0625.962685-.000001 1.882237-.036483 2.8125-.15625l1.125-6.03125c2.007561-.499601 3.893469-1.36629 5.53125-2.53125l4.8125 3.5c1.248028-1.061797 2.389277-2.282256 3.375-3.59375l-3.5-5.0625c.947853-1.63699 1.604629-3.443141 1.9375-5.375l5.90625-.9375c.051794-.616346.0625-1.214087.0625-1.84375 0-1.094214-.127182-2.167084-.28125-3.21875l-6-1.09375c-.470194-1.736224-1.241676-3.356102-2.21875-4.8125l3.53125-4.84375c-1.094573-1.3386071-2.343178-2.5751812-3.71875-3.625l-5.09375 3.5c-1.463996-.8658374-3.039463-1.5301821-4.75-1.90625l-.9375-5.9375c-.853299-.10037539-1.713621-.15625-2.59375-.15625-.237872.00000001-.482684-.0074846-.71875 0-.115083.00364881-.228966-.0066949-.34375 0-.031088.0018132-.062721-.00212309-.09375 0zm.8125 15.1875c.114166-.005793.228152 0 .34375 0 3.699127 0 6.71875 3.019624 6.71875 6.71875.000001 3.699126-3.019624 6.6875-6.71875 6.6875-3.699125.000001-6.6875-2.988374-6.6875-6.6875.000001-3.583527 2.8046-6.539158 6.34375-6.71875z" fill="url(#b)" stroke="gray"/><g fill="none" stroke="#fff"><path d="m36.239223 23.781593a12.727922 12.727922 0 1 1 -25.455844 0 12.727922 12.727922 0 1 1 25.455844 0z" opacity=".648" stroke-width="1.649" transform="matrix(.606518 0 0 .606518 10.15021 7.936835)"/><path d="m22.557788 1.6501132-.878189 5.7790101c-1.670998.3805456-4.744725 1.5444111-6.159004 2.4219929l-4.672033-3.4871869c-1.2431682.965158-1.3284229 1.0306101-2.3225076 2.2497511l3.3780526 5.0099536c-.969415 1.481461-2.1338039 4.121495-2.5518734 6.008088 0 0-5.9194088.997841-5.9194088.997841-.1017499.831066-.0528497 2.609798.0156321 3.294198l5.6542436 1.018588c.395814 1.932669 1.8770305 5.043588 2.9261735 6.637034l-3.5755759 4.724044c.9479445 1.176832 1.1376642 1.284521 2.3173929 2.229005l4.781168-3.50282c1.637918 1.044855 4.889033 2.315886 6.870935 2.676641l.784687 5.706254c.624432.056839 2.349481.216281 3.221443.10402l.878188-5.940154c1.881743-.468289 5.13316-1.80296 6.668298-2.89491l4.776055 3.450808c1.169811-.995251 1.180292-1.145216 2.104238-2.374516l-3.539198-5.030701c.888449-1.534398 2.037228-4.535223 2.349237-6.346009l5.794642-.961463c.048547-.577719.05091-2.188789-.093502-3.174545l-5.903777-1.018588c-.440727-1.627411-1.953211-4.559982-2.869049-5.925104l3.752352-4.7240431c-1.025972-1.2547143-1.407444-1.4268709-2.696806-2.4108954l-4.942313 3.5391967c-1.372246-.8115728-4.108614-2.0487474-5.711948-2.4012464l-.873075-5.6542436c-.799821-.0940847-3.107395-.0523057-3.564478 0z" opacity=".347"/></g></svg>