<svg height="45.4235" width="49.051262" xmlns="http://www.w3.org/2000/svg" xmlns:xlink="http://www.w3.org/1999/xlink"><radialGradient id="a" cx="605.71429" cy="486.64789" gradientTransform="matrix(-2.774389 0 0 1.969706 112.7623 -872.8854)" gradientUnits="userSpaceOnUse" r="117.14286" xlink:href="#b"/><linearGradient id="b"><stop offset="0"/><stop offset="1" stop-opacity="0"/></linearGradient><radialGradient id="c" cx="605.71429" cy="486.64789" gradientTransform="matrix(2.774389 0 0 1.969706 -1891.633 -872.8854)" gradientUnits="userSpaceOnUse" r="117.14286" xlink:href="#b"/><linearGradient id="d" gradientTransform="matrix(2.774389 0 0 1.969706 -1892.179 -872.8854)" gradientUnits="userSpaceOnUse" x1="302.85715" x2="302.85715" y1="366.64789" y2="609.50507"><stop offset="0" stop-opacity="0"/><stop offset=".5"/><stop offset="1" stop-opacity="0"/></linearGradient><linearGradient id="e" gradientTransform="matrix(.976612 0 0 1.139789 1.339848 -6.338738)" gradientUnits="userSpaceOnUse" x1="40.884724" x2="16.879831" y1="71.869133" y2="-.389314"><stop offset="0" stop-color="#1e2d69"/><stop offset="1" stop-color="#78a7e0"/></linearGradient><linearGradient id="f" gradientTransform="matrix(.985432 0 0 1.148179 1.416703 -6.001463)" gradientUnits="userSpaceOnUse" x1="13.783585" x2="33.074715" y1="-.996729" y2="55.701546"><stop offset="0" stop-color="#fff"/><stop offset="1" stop-color="#fff" stop-opacity="0"/></linearGradient><linearGradient id="g" gradientTransform="matrix(1.067698 0 0 1.121532 -1.368937 -5.57446)" gradientUnits="userSpaceOnUse" x1="20.125" x2="28.5625" y1="21.84375" y2="42.46875"><stop offset="0" stop-color="#858585"/><stop offset=".5" stop-color="#cbcbcb"/><stop offset="1" stop-color="#6b6b6b"/></linearGradient><g transform="matrix(.02415802 0 0 .02086758 46.012633 38.58602)"><path d="m-1559.2523-150.69685h1339.6335v478.35718h-1339.6335z" fill="url(#d)" opacity=".402062"/><path d="m-219.61876-150.68038v478.33079c142.874166.90045 345.40022-107.16966 345.40014-239.196175 0-132.026537-159.436816-239.134595-345.40014-239.134615z" fill="url(#c)" opacity=".402062"/><path d="m-1559.2523-150.68038v478.33079c-142.8742.90045-345.4002-107.16966-345.4002-239.196175 0-132.026537 159.4368-239.134595 345.4002-239.134615z" fill="url(#a)" opacity=".402062"/></g><path d="m5.3333936.5h38.8903024c.589294 0 1.063708.4744141 1.063708 1.0637086v37.7652104c0 .589294-.474414 1.063708-1.063708 1.063708h-36.8903024s-3.0637085-3.063708-3.0637085-3.063708v-35.7652104c0-.5892945.474414-1.0637086 1.0637085-1.0637086z" fill="url(#e)" stroke="#25375f" stroke-linecap="round" stroke-linejoin="round"/><path d="m9.7756332.9324203h29.9999998v22.9999997h-29.9999998z" fill="#fff"/><rect fill="#d31c00" height="4" rx=".126208" width="30" x="9.775633" y=".93242"/><rect height="2" opacity=".738636" rx=".126208" width="2" x="6.775633" y="2.93242"/><g stroke="#000" transform="translate(.775633 -3.06758)"><path d="m11 12.5h26" opacity=".130682"/><path d="m11 17.5h26" opacity=".130682"/><path d="m11 22.5h26" opacity=".130682"/></g><path d="m5.3945558 1.460085h38.7684812c.06992 0 .126208.056289.126208.1262077v37.6482383c0 .06992-.05629.126208-.126208.126208h-36.459122s-2.4355669-2.391373-2.4355669-2.391373v-35.3830733c0-.069919.056289-.1262077.1262077-.1262077z" fill="none" opacity=".596591" stroke="url(#f)" stroke-linecap="round"/><g stroke="#525252" transform="translate(.775633 -3.06758)"><path d="m14.113967 28.562183h19.749824c.887971 0 1.602836.75091 1.602836 1.683653v13.201551h-22.955496v-13.201551c0-.932743.714865-1.683653 1.602836-1.683653z" fill="url(#g)" stroke-width=".999999"/><rect fill="#4967a2" height="10.06597" rx=".751207" ry=".751208" width="5.029753" x="16.464279" y="30.4566"/></g></svg>