<svg height="48" width="48" xmlns="http://www.w3.org/2000/svg" xmlns:xlink="http://www.w3.org/1999/xlink"><radialGradient id="a" cx="605.71429" cy="486.64789" gradientTransform="matrix(-2.774389 0 0 1.969706 112.7623 -872.8854)" gradientUnits="userSpaceOnUse" r="117.14286" xlink:href="#b"/><linearGradient id="b"><stop offset="0"/><stop offset="1" stop-opacity="0"/></linearGradient><radialGradient id="c" cx="605.71429" cy="486.64789" gradientTransform="matrix(2.774389 0 0 1.969706 -1891.633 -872.8854)" gradientUnits="userSpaceOnUse" r="117.14286" xlink:href="#b"/><linearGradient id="d" gradientTransform="matrix(2.774389 0 0 1.969706 -1892.179 -872.8854)" gradientUnits="userSpaceOnUse" x1="302.85715" x2="302.85715" y1="366.64789" y2="609.50507"><stop offset="0" stop-opacity="0"/><stop offset=".5"/><stop offset="1" stop-opacity="0"/></linearGradient><linearGradient id="e" gradientTransform="matrix(1.342704 0 0 1.235378 -8.219611 -6.577189)" gradientUnits="userSpaceOnUse" x1="20.794008" x2="35.596001" y1="18.378813" y2="39.60046"><stop offset="0" stop-color="#f8f8f7"/><stop offset=".59928656" stop-color="#e8e8e8"/><stop offset="1" stop-color="#e2e2de"/></linearGradient><g transform="matrix(.02330573 0 0 .01227058 44.47891 44.41691)"><path d="m-1559.2523-150.69685h1339.6335v478.35718h-1339.6335z" fill="url(#d)" opacity=".402062"/><path d="m-219.61876-150.68038v478.33079c142.874166.90045 345.40022-107.16966 345.40014-239.196175 0-132.026537-159.436816-239.134595-345.40014-239.134615z" fill="url(#c)" opacity=".402062"/><path d="m-1559.2523-150.68038v478.33079c-142.8742.90045-345.4002-107.16966-345.4002-239.196175 0-132.026537 159.4368-239.134595 345.4002-239.134615z" fill="url(#a)" opacity=".402062"/></g><g fill-rule="evenodd"><rect fill="url(#e)" height="45.003101" rx=".566508" stroke="#888a85" width="38.996792" x="4.501602" y="1.496899"/><path d="m9 10h27v2h-27z" fill="#999"/><path d="m9 16h25v2h-25z" fill="#999"/><path d="m9 22h22.971531v2h-22.971531z" fill="#999"/><path d="m9 28h27v2h-27z" fill="#999"/><path d="m9 34h17v2h-17z" fill="#999"/></g><path d="m5.499713 2.499718h37.025566v43.022316h-37.025566z" fill="none" stroke="#fff"/></svg>