<svg height="48" width="48" xmlns="http://www.w3.org/2000/svg" xmlns:xlink="http://www.w3.org/1999/xlink"><radialGradient id="a" cx="24.53788" cy=".400108" gradientTransform="matrix(0 -2.046729 1.55761 0 2.767009 66.93275)" gradientUnits="userSpaceOnUse" r="17.171415"><stop offset="0" stop-color="#fff"/><stop offset="1" stop-color="#fff" stop-opacity="0"/></radialGradient><radialGradient id="b" cx="11.319205" cy="22.454971" gradientTransform="matrix(0 -.843022 1.020168 0 .606436 42.58614)" gradientUnits="userSpaceOnUse" r="16.956199"><stop offset="0" stop-color="#73d216"/><stop offset="1" stop-color="#4e9a06"/></radialGradient><radialGradient id="c" cx="24.837126" cy="36.421127" gradientTransform="matrix(1 0 0 .536723 0 16.87306)" gradientUnits="userSpaceOnUse" r="15.644737"><stop offset="0"/><stop offset="1" stop-opacity="0"/></radialGradient><g fill-rule="evenodd"><path d="m40.481863 36.421127a15.644737 8.3968935 0 1 1 -31.2894745 0 15.644737 8.3968935 0 1 1 31.2894745 0z" fill="url(#c)" opacity=".299465" transform="matrix(1.214466 0 0 .595458 -6.163846 16.31275)"/><path d="m14.491792 38.5h17.977685v-12.952563h8.030523l-17.125191-20.0482235-16.8462505 19.9902575 7.9685375.066291z" fill="url(#b)" stroke="#3a7304" stroke-linecap="round" stroke-linejoin="round" stroke-miterlimit="10"/><path d="m7.5855237 25.03253h7.4102973l.066601 6.561809c5.655612-11.000461 15.993095-8.844411 16.594346-15.627665 0 0-8.28983-9.5447048-8.28983-9.5447048z" fill="url(#a)" opacity=".508021"/></g><path d="m15.602735 37.5h15.899843v-12.99295h6.808998l-14.95037-17.4369604-14.7065262 17.4803804 6.8203692-.022097z" fill="none" opacity=".481283" stroke="#fff" stroke-miterlimit="10"/></svg>